<svg width="360" height="83" viewBox="0 0 360 83" fill="none" xmlns="http://www.w3.org/2000/svg">
<g filter="url(#filter0_d_226_202)">
<rect x="4" y="0.351562" width="352" height="74" rx="10" fill="#CF0201" shape-rendering="crispEdges"/>
<g clip-path="url(#clip0_226_202)">
<path d="M74.1974 45.6797L81.1641 49.4797V54.013H69.4974C67.6474 54.013 66.1641 52.5297 66.1641 50.6797V24.013C66.1641 23.129 66.5153 22.2811 67.1404 21.656C67.7655 21.0309 68.6133 20.6797 69.4974 20.6797H71.1641V32.3464L75.3307 29.8464L79.4974 32.3464V20.6797H89.4974C90.3815 20.6797 91.2293 21.0309 91.8544 21.656C92.4795 22.2811 92.8307 23.129 92.8307 24.013V38.2464L90.3307 36.8797L74.1974 45.6797ZM99.4974 45.6797L90.3307 40.6797L81.1641 45.6797L90.3307 50.6797L99.4974 45.6797ZM84.4974 49.163V52.4964L90.3307 55.6797L96.1641 52.4964V49.163L90.3307 52.3464L84.4974 49.163Z" fill="#F7F6F6"/>
</g>
<path d="M112.375 49.3516V26.5078H117.219V49.3516H112.375ZM132.516 31.5547C134.38 31.5547 135.88 32.0651 137.016 33.0859C138.151 34.0964 138.719 35.7214 138.719 37.9609V49.3516H133.953V39.1484C133.953 37.8984 133.724 36.9557 133.266 36.3203C132.818 35.6849 132.109 35.3672 131.141 35.3672C129.682 35.3672 128.688 35.862 128.156 36.8516C127.625 37.8411 127.359 39.2682 127.359 41.1328V49.3516H122.594V31.8828H126.234L126.875 34.1172H127.141C127.516 33.513 127.979 33.0234 128.531 32.6484C129.094 32.2734 129.714 31.9974 130.391 31.8203C131.078 31.6432 131.786 31.5547 132.516 31.5547ZM153.281 35.4609H149.156V49.3516H144.391V35.4609H141.766V33.1641L144.391 31.8828V30.6016C144.391 29.112 144.641 27.9557 145.141 27.1328C145.651 26.2995 146.365 25.7161 147.281 25.3828C148.208 25.0391 149.302 24.8672 150.562 24.8672C151.49 24.8672 152.333 24.9453 153.094 25.1016C153.854 25.2474 154.474 25.4141 154.953 25.6016L153.734 29.1016C153.37 28.987 152.974 28.8828 152.547 28.7891C152.12 28.6953 151.63 28.6484 151.078 28.6484C150.411 28.6484 149.922 28.8516 149.609 29.2578C149.307 29.6536 149.156 30.1641 149.156 30.7891V31.8828H153.281V35.4609ZM171.906 40.5859C171.906 42.0443 171.708 43.3359 171.312 44.4609C170.927 45.5859 170.359 46.5391 169.609 47.3203C168.87 48.0911 167.974 48.6745 166.922 49.0703C165.88 49.4661 164.703 49.6641 163.391 49.6641C162.161 49.6641 161.031 49.4661 160 49.0703C158.979 48.6745 158.089 48.0911 157.328 47.3203C156.578 46.5391 155.995 45.5859 155.578 44.4609C155.172 43.3359 154.969 42.0443 154.969 40.5859C154.969 38.6484 155.312 37.0078 156 35.6641C156.688 34.3203 157.667 33.2995 158.938 32.6016C160.208 31.9036 161.724 31.5547 163.484 31.5547C165.12 31.5547 166.568 31.9036 167.828 32.6016C169.099 33.2995 170.094 34.3203 170.812 35.6641C171.542 37.0078 171.906 38.6484 171.906 40.5859ZM159.828 40.5859C159.828 41.7318 159.953 42.6953 160.203 43.4766C160.453 44.2578 160.844 44.8464 161.375 45.2422C161.906 45.638 162.599 45.8359 163.453 45.8359C164.297 45.8359 164.979 45.638 165.5 45.2422C166.031 44.8464 166.417 44.2578 166.656 43.4766C166.906 42.6953 167.031 41.7318 167.031 40.5859C167.031 39.4297 166.906 38.4714 166.656 37.7109C166.417 36.9401 166.031 36.362 165.5 35.9766C164.969 35.5911 164.276 35.3984 163.422 35.3984C162.161 35.3984 161.245 35.8307 160.672 36.6953C160.109 37.5599 159.828 38.8568 159.828 40.5859ZM174.297 42.7266V38.8203H182.688V42.7266H174.297ZM193.828 26.5078C196.776 26.5078 198.927 27.1432 200.281 28.4141C201.635 29.6745 202.312 31.4141 202.312 33.6328C202.312 34.6328 202.161 35.5911 201.859 36.5078C201.557 37.4141 201.062 38.2214 200.375 38.9297C199.698 39.638 198.792 40.2005 197.656 40.6172C196.521 41.0234 195.12 41.2266 193.453 41.2266H191.375V49.3516H186.531V26.5078H193.828ZM193.578 30.4766H191.375V37.2578H192.969C193.875 37.2578 194.661 37.138 195.328 36.8984C195.995 36.6589 196.51 36.2839 196.875 35.7734C197.24 35.263 197.422 34.6068 197.422 33.8047C197.422 32.6797 197.109 31.8464 196.484 31.3047C195.859 30.7526 194.891 30.4766 193.578 30.4766ZM216 31.5547C216.24 31.5547 216.516 31.5703 216.828 31.6016C217.151 31.6224 217.411 31.6536 217.609 31.6953L217.25 36.1641C217.094 36.112 216.87 36.0755 216.578 36.0547C216.297 36.0234 216.052 36.0078 215.844 36.0078C215.229 36.0078 214.63 36.0859 214.047 36.2422C213.474 36.3984 212.958 36.6536 212.5 37.0078C212.042 37.3516 211.677 37.8099 211.406 38.3828C211.146 38.9453 211.016 39.638 211.016 40.4609V49.3516H206.25V31.8828H209.859L210.562 34.8203H210.797C211.141 34.2266 211.568 33.6849 212.078 33.1953C212.599 32.6953 213.188 32.2995 213.844 32.0078C214.51 31.7057 215.229 31.5547 216 31.5547ZM236.656 40.5859C236.656 42.0443 236.458 43.3359 236.062 44.4609C235.677 45.5859 235.109 46.5391 234.359 47.3203C233.62 48.0911 232.724 48.6745 231.672 49.0703C230.63 49.4661 229.453 49.6641 228.141 49.6641C226.911 49.6641 225.781 49.4661 224.75 49.0703C223.729 48.6745 222.839 48.0911 222.078 47.3203C221.328 46.5391 220.745 45.5859 220.328 44.4609C219.922 43.3359 219.719 42.0443 219.719 40.5859C219.719 38.6484 220.062 37.0078 220.75 35.6641C221.438 34.3203 222.417 33.2995 223.688 32.6016C224.958 31.9036 226.474 31.5547 228.234 31.5547C229.87 31.5547 231.318 31.9036 232.578 32.6016C233.849 33.2995 234.844 34.3203 235.562 35.6641C236.292 37.0078 236.656 38.6484 236.656 40.5859ZM224.578 40.5859C224.578 41.7318 224.703 42.6953 224.953 43.4766C225.203 44.2578 225.594 44.8464 226.125 45.2422C226.656 45.638 227.349 45.8359 228.203 45.8359C229.047 45.8359 229.729 45.638 230.25 45.2422C230.781 44.8464 231.167 44.2578 231.406 43.4766C231.656 42.6953 231.781 41.7318 231.781 40.5859C231.781 39.4297 231.656 38.4714 231.406 37.7109C231.167 36.9401 230.781 36.362 230.25 35.9766C229.719 35.5911 229.026 35.3984 228.172 35.3984C226.911 35.3984 225.995 35.8307 225.422 36.6953C224.859 37.5599 224.578 38.8568 224.578 40.5859ZM246.125 49.6641C244.177 49.6641 242.589 48.9036 241.359 47.3828C240.141 45.8516 239.531 43.6068 239.531 40.6484C239.531 37.6589 240.151 35.3984 241.391 33.8672C242.63 32.3255 244.25 31.5547 246.25 31.5547C247.083 31.5547 247.818 31.6693 248.453 31.8984C249.089 32.1276 249.635 32.4349 250.094 32.8203C250.562 33.2057 250.958 33.638 251.281 34.1172H251.438C251.375 33.7839 251.297 33.2943 251.203 32.6484C251.12 31.9922 251.078 31.3203 251.078 30.6328V25.0391H255.859V49.3516H252.203L251.281 47.0859H251.078C250.776 47.5651 250.396 48.0026 249.938 48.3984C249.49 48.7839 248.953 49.0911 248.328 49.3203C247.703 49.5495 246.969 49.6641 246.125 49.6641ZM247.797 45.8672C249.099 45.8672 250.016 45.4818 250.547 44.7109C251.089 43.9297 251.375 42.7578 251.406 41.1953V40.6797C251.406 38.9818 251.146 37.6849 250.625 36.7891C250.104 35.8828 249.135 35.4297 247.719 35.4297C246.667 35.4297 245.844 35.8828 245.25 36.7891C244.656 37.6953 244.359 39.0026 244.359 40.7109C244.359 42.4193 244.656 43.7057 245.25 44.5703C245.854 45.4349 246.703 45.8672 247.797 45.8672ZM276.875 31.8828V49.3516H273.219L272.578 47.1172H272.328C271.953 47.7109 271.484 48.1953 270.922 48.5703C270.359 48.9453 269.74 49.2214 269.062 49.3984C268.385 49.5755 267.682 49.6641 266.953 49.6641C265.703 49.6641 264.615 49.4453 263.688 49.0078C262.76 48.5599 262.036 47.8672 261.516 46.9297C261.005 45.9922 260.75 44.7734 260.75 43.2734V31.8828H265.516V42.0859C265.516 43.3359 265.74 44.2786 266.188 44.9141C266.635 45.5495 267.349 45.8672 268.328 45.8672C269.297 45.8672 270.057 45.6484 270.609 45.2109C271.161 44.763 271.547 44.112 271.766 43.2578C271.995 42.3932 272.109 41.3411 272.109 40.1016V31.8828H276.875ZM288.969 49.6641C287.24 49.6641 285.766 49.3516 284.547 48.7266C283.328 48.0911 282.401 47.112 281.766 45.7891C281.13 44.4661 280.812 42.7734 280.812 40.7109C280.812 38.5755 281.172 36.8359 281.891 35.4922C282.62 34.138 283.625 33.1432 284.906 32.5078C286.198 31.8724 287.693 31.5547 289.391 31.5547C290.599 31.5547 291.641 31.6745 292.516 31.9141C293.401 32.1432 294.172 32.4193 294.828 32.7422L293.422 36.4297C292.672 36.1276 291.974 35.8828 291.328 35.6953C290.682 35.4974 290.036 35.3984 289.391 35.3984C288.557 35.3984 287.865 35.5964 287.312 35.9922C286.76 36.3776 286.349 36.9609 286.078 37.7422C285.807 38.5234 285.672 39.5026 285.672 40.6797C285.672 41.8359 285.818 42.7943 286.109 43.5547C286.401 44.3151 286.823 44.8828 287.375 45.2578C287.927 45.6224 288.599 45.8047 289.391 45.8047C290.38 45.8047 291.26 45.6745 292.031 45.4141C292.802 45.1432 293.552 44.7682 294.281 44.2891V48.3672C293.552 48.8255 292.786 49.1536 291.984 49.3516C291.193 49.5599 290.188 49.6641 288.969 49.6641ZM305.703 45.8672C306.224 45.8672 306.729 45.8151 307.219 45.7109C307.719 45.6068 308.214 45.4766 308.703 45.3203V48.8672C308.193 49.0964 307.557 49.2839 306.797 49.4297C306.047 49.5859 305.224 49.6641 304.328 49.6641C303.286 49.6641 302.349 49.4974 301.516 49.1641C300.693 48.8203 300.042 48.2318 299.562 47.3984C299.094 46.5547 298.859 45.3828 298.859 43.8828V35.4609H296.578V33.4453L299.203 31.8516L300.578 28.1641L303.625 28.1641V31.8828H308.516V35.4609H303.625V43.8828C303.625 44.5495 303.812 45.0495 304.188 45.3828C304.573 45.7057 305.078 45.8672 305.703 45.8672Z" fill="#F7F6F6"/>
</g>
<defs>
<filter id="filter0_d_226_202" x="0" y="0.351562" width="360" height="82" filterUnits="userSpaceOnUse" color-interpolation-filters="sRGB">
<feFlood flood-opacity="0" result="BackgroundImageFix"/>
<feColorMatrix in="SourceAlpha" type="matrix" values="0 0 0 0 0 0 0 0 0 0 0 0 0 0 0 0 0 0 127 0" result="hardAlpha"/>
<feOffset dy="4"/>
<feGaussianBlur stdDeviation="2"/>
<feComposite in2="hardAlpha" operator="out"/>
<feColorMatrix type="matrix" values="0 0 0 0 0 0 0 0 0 0 0 0 0 0 0 0 0 0 0.25 0"/>
<feBlend mode="normal" in2="BackgroundImageFix" result="effect1_dropShadow_226_202"/>
<feBlend mode="normal" in="SourceGraphic" in2="effect1_dropShadow_226_202" result="shape"/>
</filter>
<clipPath id="clip0_226_202">
<rect width="40" height="40" fill="white" transform="translate(59.5 17.3516)"/>
</clipPath>
</defs>
</svg>
