<svg width="305" height="83" viewBox="0 0 305 83" fill="none" xmlns="http://www.w3.org/2000/svg">
<g filter="url(#filter0_d_226_198)">
<rect x="4" y="0.351562" width="297" height="74" rx="10" fill="#CF0201" shape-rendering="crispEdges"/>
<path d="M90.5 31.5266C87.275 31.5266 84.675 34.1516 84.675 37.3516C84.675 40.5516 87.3 43.1766 90.5 43.1766C93.7 43.1766 96.325 40.5516 96.325 37.3516C96.325 34.1516 93.7 31.5266 90.5 31.5266ZM108 37.3516C108 34.9266 108 32.5516 107.875 30.1266C107.75 27.3266 107.1 24.8266 105.05 22.8016C103 20.7516 100.525 20.1016 97.725 19.9766C95.3 19.8516 92.925 19.8516 90.5 19.8516C88.075 19.8516 85.7 19.8516 83.275 19.9766C80.475 20.1016 77.975 20.7516 75.95 22.8016C73.9 24.8516 73.25 27.3266 73.125 30.1266C73 32.5516 73 34.9266 73 37.3516C73 39.7766 73 42.1516 73.125 44.5766C73.25 47.3766 73.9 49.8766 75.95 51.9016C78 53.9516 80.475 54.6016 83.275 54.7266C85.7 54.8516 88.075 54.8516 90.5 54.8516C92.925 54.8516 95.3 54.8516 97.725 54.7266C100.525 54.6016 103.025 53.9516 105.05 51.9016C107.1 49.8516 107.75 47.3766 107.875 44.5766C108.025 42.1766 108 39.7766 108 37.3516ZM90.5 46.3266C85.525 46.3266 81.525 42.3266 81.525 37.3516C81.525 32.3766 85.525 28.3766 90.5 28.3766C95.475 28.3766 99.475 32.3766 99.475 37.3516C99.475 42.3266 95.475 46.3266 90.5 46.3266ZM99.85 30.1016C98.7 30.1016 97.75 29.1766 97.75 28.0016C97.75 26.8266 98.675 25.9016 99.85 25.9016C101.025 25.9016 101.95 26.8266 101.95 28.0016C101.956 28.2754 101.906 28.5476 101.803 28.8013C101.7 29.0551 101.546 29.2849 101.35 29.4766C101.158 29.6722 100.929 29.8265 100.675 29.9297C100.421 30.0329 100.149 30.0829 99.875 30.0766L99.85 30.1016Z" fill="#F7F6F6"/>
<path d="M136.859 43.0078C136.859 44.362 136.531 45.5391 135.875 46.5391C135.219 47.5391 134.26 48.3099 133 48.8516C131.75 49.3932 130.229 49.6641 128.437 49.6641C127.646 49.6641 126.87 49.612 126.109 49.5078C125.359 49.4036 124.635 49.2526 123.937 49.0547C123.25 48.8464 122.594 48.5911 121.969 48.2891V43.7891C123.052 44.2682 124.177 44.7005 125.344 45.0859C126.51 45.4714 127.667 45.6641 128.812 45.6641C129.604 45.6641 130.24 45.5599 130.719 45.3516C131.208 45.1432 131.562 44.8568 131.781 44.4922C132 44.1276 132.109 43.7109 132.109 43.2422C132.109 42.6693 131.917 42.1797 131.531 41.7734C131.146 41.3672 130.615 40.987 129.937 40.6328C129.271 40.2786 128.516 39.8984 127.672 39.4922C127.141 39.2422 126.562 38.9401 125.937 38.5859C125.312 38.2214 124.719 37.7786 124.156 37.2578C123.594 36.737 123.13 36.1068 122.766 35.3672C122.411 34.6172 122.234 33.7214 122.234 32.6797C122.234 31.3151 122.547 30.1484 123.172 29.1797C123.797 28.2109 124.687 27.4714 125.844 26.9609C127.01 26.4401 128.385 26.1797 129.969 26.1797C131.156 26.1797 132.286 26.3203 133.359 26.6016C134.443 26.8724 135.573 27.2682 136.75 27.7891L135.187 31.5547C134.135 31.1276 133.193 30.7995 132.359 30.5703C131.526 30.3307 130.677 30.2109 129.812 30.2109C129.208 30.2109 128.693 30.3099 128.266 30.5078C127.839 30.6953 127.516 30.9661 127.297 31.3203C127.078 31.6641 126.969 32.0651 126.969 32.5234C126.969 33.0651 127.125 33.5234 127.437 33.8984C127.76 34.263 128.24 34.6172 128.875 34.9609C129.521 35.3047 130.323 35.7057 131.281 36.1641C132.448 36.7161 133.443 37.2943 134.266 37.8984C135.099 38.4922 135.74 39.1953 136.187 40.0078C136.635 40.8099 136.859 41.8099 136.859 43.0078ZM150.672 49.3516L145.172 31.4297H145.031C145.052 31.8568 145.083 32.5026 145.125 33.3672C145.177 34.2214 145.224 35.1328 145.266 36.1016C145.307 37.0703 145.328 37.9453 145.328 38.7266V49.3516H141V26.5078H147.594L153 43.9766H153.094L158.828 26.5078L165.422 26.5078V49.3516H160.906V38.5391C160.906 37.8203 160.917 36.9922 160.937 36.0547C160.969 35.1172 161.005 34.2266 161.047 33.3828C161.089 32.5286 161.12 31.888 161.141 31.4609H161L155.109 49.3516H150.672ZM180.859 49.3516L175.359 31.4297H175.219C175.24 31.8568 175.271 32.5026 175.312 33.3672C175.365 34.2214 175.411 35.1328 175.453 36.1016C175.495 37.0703 175.516 37.9453 175.516 38.7266V49.3516H171.187V26.5078H177.781L183.187 43.9766H183.281L189.016 26.5078L195.609 26.5078V49.3516H191.094V38.5391C191.094 37.8203 191.104 36.9922 191.125 36.0547C191.156 35.1172 191.193 34.2266 191.234 33.3828C191.276 32.5286 191.307 31.888 191.328 31.4609H191.187L185.297 49.3516H180.859Z" fill="#F7F6F6"/>
</g>
<defs>
<filter id="filter0_d_226_198" x="0" y="0.351562" width="305" height="82" filterUnits="userSpaceOnUse" color-interpolation-filters="sRGB">
<feFlood flood-opacity="0" result="BackgroundImageFix"/>
<feColorMatrix in="SourceAlpha" type="matrix" values="0 0 0 0 0 0 0 0 0 0 0 0 0 0 0 0 0 0 127 0" result="hardAlpha"/>
<feOffset dy="4"/>
<feGaussianBlur stdDeviation="2"/>
<feComposite in2="hardAlpha" operator="out"/>
<feColorMatrix type="matrix" values="0 0 0 0 0 0 0 0 0 0 0 0 0 0 0 0 0 0 0.25 0"/>
<feBlend mode="normal" in2="BackgroundImageFix" result="effect1_dropShadow_226_198"/>
<feBlend mode="normal" in="SourceGraphic" in2="effect1_dropShadow_226_198" result="shape"/>
</filter>
</defs>
</svg>
