<svg width="300" height="83" viewBox="0 0 300 83" fill="none" xmlns="http://www.w3.org/2000/svg">
<g filter="url(#filter0_d_226_203)">
<rect x="4.60284" y="0.770996" width="291.344" height="74" rx="10" fill="#CF0201" shape-rendering="crispEdges"/>
<path d="M101.938 26.0245C102.598 26.8045 103.16 27.6685 103.606 28.5985C103.234 28.9705 102.793 29.2657 102.307 29.4672C101.822 29.6686 101.301 29.7724 100.776 29.7725C100.061 29.7727 99.3593 29.5814 98.7436 29.2185L101.938 26.0245ZM100.524 24.6085L97.3296 27.8045C96.877 27.0407 96.6922 26.1477 96.8046 25.267C96.9169 24.3863 97.3198 23.5683 97.9496 22.9425C98.8796 23.3885 99.7436 23.9505 100.524 24.6085ZM104.776 33.7725C104.777 32.6982 104.633 31.6286 104.35 30.5925C103.35 31.3325 102.114 31.7725 100.776 31.7725C99.5291 31.7727 98.3135 31.3848 97.2976 30.6625L95.1896 32.7725L102.796 40.3785C104.046 38.4825 104.776 36.2125 104.776 33.7725ZM94.7756 25.7725C94.7756 24.4325 95.2136 23.1965 95.9556 22.1985C94.9195 21.9148 93.8499 21.7715 92.7756 21.7725C90.4268 21.7684 88.1289 22.4571 86.1696 23.7525L93.7756 31.3585L95.8836 29.2485C95.1624 28.2329 94.7752 27.0181 94.7756 25.7725ZM92.1896 35.7725C94.5458 38.3994 96.0749 41.6629 96.5856 45.1545C98.4797 44.5194 100.185 43.4216 101.548 41.9605L93.7756 34.1865L92.1896 35.7725ZM92.3616 32.7725L90.7756 34.3565C88.1493 32.0007 84.8865 30.4716 81.3956 29.9605C82.031 28.0671 83.1288 26.3623 84.5896 25.0005L92.3616 32.7725ZM75.7756 31.7725C74.98 31.7725 74.2169 32.0885 73.6543 32.6512C73.0917 33.2138 72.7756 33.9768 72.7756 34.7725V37.7725C72.7756 42.0159 74.4613 46.0856 77.4619 49.0862C80.4625 52.0868 84.5322 53.7725 88.7756 53.7725H91.7756C92.5713 53.7725 93.3343 53.4564 93.897 52.8938C94.4596 52.3312 94.7756 51.5681 94.7756 50.7725V47.7725C94.7756 43.529 93.0899 39.4594 90.0893 36.4588C87.0888 33.4582 83.0191 31.7725 78.7756 31.7725H75.7756ZM81.0676 40.0645C81.1605 39.9714 81.2709 39.8975 81.3924 39.8471C81.5139 39.7966 81.6441 39.7707 81.7756 39.7707C81.9072 39.7707 82.0374 39.7966 82.1589 39.8471C82.2804 39.8975 82.3907 39.9714 82.4836 40.0645L86.4836 44.0645C86.6714 44.2523 86.7769 44.5069 86.7769 44.7725C86.7769 45.038 86.6714 45.2927 86.4836 45.4805C86.2959 45.6683 86.0412 45.7737 85.7756 45.7737C85.5101 45.7737 85.2554 45.6683 85.0676 45.4805L81.0676 41.4805C80.9745 41.3876 80.9006 41.2772 80.8502 41.1557C80.7998 41.0343 80.7738 40.904 80.7738 40.7725C80.7738 40.6409 80.7998 40.5107 80.8502 40.3892C80.9006 40.2677 80.9745 40.1574 81.0676 40.0645Z" fill="#F7F6F6"/>
<path d="M126.415 49.771H121.65V26.9272H134.744V30.896H126.415V36.7866H134.165V40.7397H126.415V49.771ZM143.603 32.3022V49.771H138.837V32.3022H143.603ZM141.228 25.4585C141.936 25.4585 142.546 25.6252 143.056 25.9585C143.566 26.2814 143.822 26.8908 143.822 27.7866C143.822 28.672 143.566 29.2866 143.056 29.6304C142.546 29.9637 141.936 30.1304 141.228 30.1304C140.509 30.1304 139.895 29.9637 139.384 29.6304C138.884 29.2866 138.634 28.672 138.634 27.7866C138.634 26.8908 138.884 26.2814 139.384 25.9585C139.895 25.6252 140.509 25.4585 141.228 25.4585ZM155.978 46.2866C156.499 46.2866 157.004 46.2345 157.494 46.1304C157.994 46.0262 158.488 45.896 158.978 45.7397V49.2866C158.467 49.5158 157.832 49.7033 157.072 49.8491C156.322 50.0054 155.499 50.0835 154.603 50.0835C153.561 50.0835 152.624 49.9168 151.79 49.5835C150.967 49.2397 150.316 48.6512 149.837 47.8179C149.369 46.9741 149.134 45.8022 149.134 44.3022V35.8804H146.853V33.8647L149.478 32.271L150.853 28.5835H153.9V32.3022H158.79V35.8804H153.9V44.3022C153.9 44.9689 154.087 45.4689 154.462 45.8022C154.848 46.1252 155.353 46.2866 155.978 46.2866ZM172.447 31.9741C174.311 31.9741 175.811 32.4845 176.947 33.5054C178.082 34.5158 178.65 36.1408 178.65 38.3804V49.771H173.884V39.5679C173.884 38.3179 173.655 37.3752 173.197 36.7397C172.749 36.1043 172.04 35.7866 171.072 35.7866C169.613 35.7866 168.619 36.2814 168.087 37.271C167.556 38.2606 167.29 39.6877 167.29 41.5522V49.771H162.525V32.3022H166.165L166.806 34.5366H167.072C167.447 33.9325 167.91 33.4429 168.462 33.0679C169.025 32.6929 169.645 32.4168 170.322 32.2397C171.009 32.0627 171.717 31.9741 172.447 31.9741ZM190.759 31.9741C192.374 31.9741 193.764 32.2866 194.931 32.9116C196.098 33.5262 196.999 34.422 197.634 35.5991C198.27 36.7762 198.587 38.2137 198.587 39.9116V42.2241H187.322C187.374 43.5679 187.775 44.6252 188.525 45.396C189.285 46.1564 190.337 46.5366 191.681 46.5366C192.796 46.5366 193.816 46.422 194.744 46.1929C195.671 45.9637 196.624 45.62 197.603 45.1616V48.8491C196.738 49.2762 195.832 49.5887 194.884 49.7866C193.947 49.9845 192.806 50.0835 191.462 50.0835C189.712 50.0835 188.16 49.7606 186.806 49.1147C185.462 48.4689 184.405 47.4845 183.634 46.1616C182.874 44.8387 182.494 43.172 182.494 41.1616C182.494 39.12 182.837 37.422 183.525 36.0679C184.223 34.7033 185.191 33.6825 186.431 33.0054C187.671 32.3179 189.113 31.9741 190.759 31.9741ZM190.79 35.3647C189.863 35.3647 189.092 35.6616 188.478 36.2554C187.874 36.8491 187.525 37.7814 187.431 39.0522H194.119C194.108 38.3439 193.978 37.7137 193.728 37.1616C193.488 36.6095 193.124 36.172 192.634 35.8491C192.155 35.5262 191.54 35.3647 190.79 35.3647ZM214.65 44.5835C214.65 45.771 214.369 46.7762 213.806 47.5991C213.254 48.4116 212.426 49.0314 211.322 49.4585C210.217 49.8752 208.842 50.0835 207.197 50.0835C205.978 50.0835 204.931 50.0054 204.056 49.8491C203.191 49.6929 202.316 49.4325 201.431 49.0679V45.1304C202.379 45.5575 203.395 45.9116 204.478 46.1929C205.572 46.4637 206.53 46.5991 207.353 46.5991C208.28 46.5991 208.941 46.4637 209.337 46.1929C209.744 45.9116 209.947 45.547 209.947 45.0991C209.947 44.8075 209.863 44.547 209.697 44.3179C209.54 44.0783 209.197 43.8127 208.665 43.521C208.134 43.2189 207.301 42.8283 206.165 42.3491C205.072 41.8908 204.171 41.4272 203.462 40.9585C202.764 40.4897 202.244 39.9377 201.9 39.3022C201.566 38.6564 201.4 37.8387 201.4 36.8491C201.4 35.2345 202.025 34.021 203.275 33.2085C204.535 32.3856 206.217 31.9741 208.322 31.9741C209.405 31.9741 210.436 32.0835 211.415 32.3022C212.405 32.521 213.421 32.87 214.462 33.3491L213.025 36.7866C212.16 36.4116 211.342 36.1043 210.572 35.8647C209.811 35.6252 209.035 35.5054 208.244 35.5054C207.546 35.5054 207.02 35.5991 206.665 35.7866C206.311 35.9741 206.134 36.2606 206.134 36.646C206.134 36.9272 206.223 37.1772 206.4 37.396C206.587 37.6147 206.941 37.8595 207.462 38.1304C207.994 38.3908 208.77 38.7293 209.79 39.146C210.78 39.5522 211.639 39.9793 212.369 40.4272C213.098 40.8647 213.66 41.4116 214.056 42.0679C214.452 42.7137 214.65 43.5522 214.65 44.5835ZM230.556 44.5835C230.556 45.771 230.275 46.7762 229.712 47.5991C229.16 48.4116 228.332 49.0314 227.228 49.4585C226.124 49.8752 224.749 50.0835 223.103 50.0835C221.884 50.0835 220.837 50.0054 219.962 49.8491C219.098 49.6929 218.223 49.4325 217.337 49.0679V45.1304C218.285 45.5575 219.301 45.9116 220.384 46.1929C221.478 46.4637 222.436 46.5991 223.259 46.5991C224.186 46.5991 224.848 46.4637 225.244 46.1929C225.65 45.9116 225.853 45.547 225.853 45.0991C225.853 44.8075 225.77 44.547 225.603 44.3179C225.447 44.0783 225.103 43.8127 224.572 43.521C224.04 43.2189 223.207 42.8283 222.072 42.3491C220.978 41.8908 220.077 41.4272 219.369 40.9585C218.671 40.4897 218.15 39.9377 217.806 39.3022C217.473 38.6564 217.306 37.8387 217.306 36.8491C217.306 35.2345 217.931 34.021 219.181 33.2085C220.441 32.3856 222.124 31.9741 224.228 31.9741C225.311 31.9741 226.342 32.0835 227.322 32.3022C228.311 32.521 229.327 32.87 230.369 33.3491L228.931 36.7866C228.066 36.4116 227.249 36.1043 226.478 35.8647C225.717 35.6252 224.941 35.5054 224.15 35.5054C223.452 35.5054 222.926 35.5991 222.572 35.7866C222.217 35.9741 222.04 36.2606 222.04 36.646C222.04 36.9272 222.129 37.1772 222.306 37.396C222.494 37.6147 222.848 37.8595 223.369 38.1304C223.9 38.3908 224.676 38.7293 225.697 39.146C226.686 39.5522 227.546 39.9793 228.275 40.4272C229.004 40.8647 229.566 41.4116 229.962 42.0679C230.358 42.7137 230.556 43.5522 230.556 44.5835Z" fill="#F7F6F6"/>
</g>
<defs>
<filter id="filter0_d_226_203" x="0.602844" y="0.770996" width="299.344" height="82" filterUnits="userSpaceOnUse" color-interpolation-filters="sRGB">
<feFlood flood-opacity="0" result="BackgroundImageFix"/>
<feColorMatrix in="SourceAlpha" type="matrix" values="0 0 0 0 0 0 0 0 0 0 0 0 0 0 0 0 0 0 127 0" result="hardAlpha"/>
<feOffset dy="4"/>
<feGaussianBlur stdDeviation="2"/>
<feComposite in2="hardAlpha" operator="out"/>
<feColorMatrix type="matrix" values="0 0 0 0 0 0 0 0 0 0 0 0 0 0 0 0 0 0 0.25 0"/>
<feBlend mode="normal" in2="BackgroundImageFix" result="effect1_dropShadow_226_203"/>
<feBlend mode="normal" in="SourceGraphic" in2="effect1_dropShadow_226_203" result="shape"/>
</filter>
</defs>
</svg>
