<svg width="338" height="83" viewBox="0 0 338 83" fill="none" xmlns="http://www.w3.org/2000/svg">
<g filter="url(#filter0_d_226_199)">
<rect x="4.94772" y="0.916992" width="328.277" height="74" rx="10" fill="#CF0201" shape-rendering="crispEdges"/>
<g clip-path="url(#clip0_226_199)">
<path d="M72.2793 47.911C74.1126 47.911 75.6126 46.411 75.6126 44.5776V27.911C75.6126 26.0776 74.1126 24.5776 72.2793 24.5776H45.6126C43.7793 24.5776 42.2793 26.0776 42.2793 27.911V44.5776C42.2793 46.411 43.7793 47.911 45.6126 47.911H38.9459V51.2443H78.9459V47.911H72.2793ZM45.6126 27.911H72.2793V44.5776H45.6126V27.911Z" fill="#F7F6F6"/>
</g>
<path d="M100.635 50.5015H95.7915V31.689H89.5883V27.6577H106.838V31.689H100.635V50.5015ZM117.135 32.6733C119.479 32.6733 121.276 33.1838 122.526 34.2046C123.776 35.2254 124.401 36.7775 124.401 38.8608V50.5015H121.073L120.151 48.1265H120.026C119.526 48.7515 119.015 49.2619 118.495 49.6577C117.974 50.0535 117.375 50.3452 116.698 50.5327C116.021 50.7202 115.198 50.814 114.229 50.814C113.198 50.814 112.271 50.616 111.448 50.2202C110.635 49.8244 109.995 49.2202 109.526 48.4077C109.057 47.5848 108.823 46.5431 108.823 45.2827C108.823 43.4285 109.474 42.064 110.776 41.189C112.078 40.3035 114.031 39.814 116.635 39.7202L119.666 39.6265V38.8608C119.666 37.9442 119.427 37.2723 118.948 36.8452C118.469 36.4181 117.802 36.2046 116.948 36.2046C116.104 36.2046 115.276 36.3244 114.463 36.564C113.651 36.8035 112.838 37.1056 112.026 37.4702L110.448 34.2515C111.375 33.7619 112.411 33.3765 113.557 33.0952C114.713 32.814 115.906 32.6733 117.135 32.6733ZM119.666 42.4077L117.823 42.4702C116.281 42.5119 115.208 42.7879 114.604 43.2983C114.01 43.8088 113.713 44.4806 113.713 45.314C113.713 46.0431 113.927 46.564 114.354 46.8765C114.781 47.1785 115.338 47.3296 116.026 47.3296C117.047 47.3296 117.906 47.0275 118.604 46.4233C119.312 45.8192 119.666 44.9598 119.666 43.8452V42.4077ZM139.073 32.7046C139.312 32.7046 139.588 32.7202 139.901 32.7515C140.224 32.7723 140.484 32.8035 140.682 32.8452L140.323 37.314C140.166 37.2619 139.942 37.2254 139.651 37.2046C139.37 37.1733 139.125 37.1577 138.916 37.1577C138.302 37.1577 137.703 37.2358 137.12 37.3921C136.547 37.5483 136.031 37.8035 135.573 38.1577C135.114 38.5015 134.75 38.9598 134.479 39.5327C134.219 40.0952 134.088 40.7879 134.088 41.6108V50.5015H129.323V33.0327H132.932L133.635 35.9702H133.87C134.213 35.3765 134.64 34.8348 135.151 34.3452C135.672 33.8452 136.26 33.4494 136.916 33.1577C137.583 32.8556 138.302 32.7046 139.073 32.7046ZM148.963 58.189C146.526 58.189 144.661 57.7619 143.37 56.9077C142.088 56.064 141.448 54.8765 141.448 53.3452C141.448 52.2931 141.776 51.4129 142.432 50.7046C143.088 49.9963 144.052 49.491 145.323 49.189C144.833 48.9806 144.406 48.6421 144.041 48.1733C143.677 47.6942 143.495 47.189 143.495 46.6577C143.495 45.991 143.687 45.439 144.073 45.0015C144.458 44.5535 145.015 44.116 145.745 43.689C144.828 43.2931 144.099 42.6577 143.557 41.7827C143.026 40.9077 142.76 39.8765 142.76 38.689C142.76 37.4181 143.036 36.34 143.588 35.4546C144.151 34.5588 144.963 33.8765 146.026 33.4077C147.099 32.939 148.401 32.7046 149.932 32.7046C150.255 32.7046 150.63 32.7254 151.057 32.7671C151.484 32.8088 151.875 32.8556 152.229 32.9077C152.594 32.9598 152.838 33.0015 152.963 33.0327H159.057V35.4546L156.323 36.1577C156.573 36.5431 156.76 36.9546 156.885 37.3921C157.01 37.8296 157.073 38.2931 157.073 38.7827C157.073 40.6577 156.416 42.1213 155.104 43.1733C153.802 44.215 151.989 44.7358 149.666 44.7358C149.114 44.7046 148.594 44.6629 148.104 44.6108C147.864 44.7983 147.682 44.9963 147.557 45.2046C147.432 45.4129 147.37 45.6317 147.37 45.8608C147.37 46.09 147.463 46.2827 147.651 46.439C147.849 46.5848 148.14 46.6994 148.526 46.7827C148.922 46.8556 149.411 46.8921 149.995 46.8921H152.963C154.88 46.8921 156.338 47.3035 157.338 48.1265C158.349 48.9494 158.854 50.1577 158.854 51.7515C158.854 53.7931 158 55.3765 156.291 56.5015C154.594 57.6265 152.151 58.189 148.963 58.189ZM149.166 55.0796C150.302 55.0796 151.276 54.9702 152.088 54.7515C152.911 54.5431 153.541 54.241 153.979 53.8452C154.416 53.4598 154.635 52.9963 154.635 52.4546C154.635 52.0171 154.505 51.6681 154.245 51.4077C153.995 51.1577 153.609 50.9806 153.088 50.8765C152.578 50.7723 151.922 50.7202 151.12 50.7202H148.651C148.067 50.7202 147.541 50.814 147.073 51.0015C146.614 51.189 146.25 51.4494 145.979 51.7827C145.708 52.1265 145.573 52.5223 145.573 52.9702C145.573 53.6265 145.885 54.1421 146.51 54.5171C147.146 54.8921 148.031 55.0796 149.166 55.0796ZM149.932 41.8296C150.828 41.8296 151.484 41.5535 151.901 41.0015C152.317 40.4494 152.526 39.6994 152.526 38.7515C152.526 37.6994 152.307 36.9129 151.87 36.3921C151.442 35.8608 150.797 35.5952 149.932 35.5952C149.057 35.5952 148.401 35.8608 147.963 36.3921C147.526 36.9129 147.307 37.6994 147.307 38.7515C147.307 39.6994 147.521 40.4494 147.948 41.0015C148.385 41.5535 149.047 41.8296 149.932 41.8296ZM169.151 32.7046C170.765 32.7046 172.156 33.0171 173.323 33.6421C174.489 34.2567 175.39 35.1525 176.026 36.3296C176.661 37.5067 176.979 38.9442 176.979 40.6421V42.9546H165.713C165.765 44.2983 166.166 45.3556 166.916 46.1265C167.677 46.8869 168.729 47.2671 170.073 47.2671C171.187 47.2671 172.208 47.1525 173.135 46.9233C174.062 46.6942 175.015 46.3504 175.995 45.8921V49.5796C175.13 50.0067 174.224 50.3192 173.276 50.5171C172.338 50.715 171.198 50.814 169.854 50.814C168.104 50.814 166.552 50.491 165.198 49.8452C163.854 49.1994 162.797 48.215 162.026 46.8921C161.265 45.5692 160.885 43.9025 160.885 41.8921C160.885 39.8504 161.229 38.1525 161.916 36.7983C162.614 35.4338 163.583 34.4129 164.823 33.7358C166.062 33.0483 167.505 32.7046 169.151 32.7046ZM169.182 36.0952C168.255 36.0952 167.484 36.3921 166.87 36.9858C166.265 37.5796 165.916 38.5119 165.823 39.7827H172.51C172.5 39.0744 172.37 38.4442 172.12 37.8921C171.88 37.34 171.515 36.9025 171.026 36.5796C170.547 36.2567 169.932 36.0952 169.182 36.0952ZM188.213 47.0171C188.734 47.0171 189.239 46.965 189.729 46.8608C190.229 46.7567 190.724 46.6265 191.213 46.4702V50.0171C190.703 50.2463 190.067 50.4338 189.307 50.5796C188.557 50.7358 187.734 50.814 186.838 50.814C185.797 50.814 184.859 50.6473 184.026 50.314C183.203 49.9702 182.552 49.3817 182.073 48.5483C181.604 47.7046 181.37 46.5327 181.37 45.0327V36.6108H179.088V34.5952L181.713 33.0015L183.088 29.314H186.135V33.0327H191.026V36.6108H186.135V45.0327C186.135 45.6994 186.323 46.1994 186.698 46.5327C187.083 46.8556 187.588 47.0171 188.213 47.0171ZM201.963 32.7046C203.578 32.7046 204.969 33.0171 206.135 33.6421C207.302 34.2567 208.203 35.1525 208.838 36.3296C209.474 37.5067 209.791 38.9442 209.791 40.6421V42.9546H198.526C198.578 44.2983 198.979 45.3556 199.729 46.1265C200.489 46.8869 201.541 47.2671 202.885 47.2671C204 47.2671 205.021 47.1525 205.948 46.9233C206.875 46.6942 207.828 46.3504 208.807 45.8921V49.5796C207.942 50.0067 207.036 50.3192 206.088 50.5171C205.151 50.715 204.01 50.814 202.666 50.814C200.916 50.814 199.364 50.491 198.01 49.8452C196.666 49.1994 195.609 48.215 194.838 46.8921C194.078 45.5692 193.698 43.9025 193.698 41.8921C193.698 39.8504 194.041 38.1525 194.729 36.7983C195.427 35.4338 196.396 34.4129 197.635 33.7358C198.875 33.0483 200.317 32.7046 201.963 32.7046ZM201.995 36.0952C201.067 36.0952 200.297 36.3921 199.682 36.9858C199.078 37.5796 198.729 38.5119 198.635 39.7827H205.323C205.312 39.0744 205.182 38.4442 204.932 37.8921C204.692 37.34 204.328 36.9025 203.838 36.5796C203.359 36.2567 202.745 36.0952 201.995 36.0952ZM219.198 50.814C217.25 50.814 215.661 50.0535 214.432 48.5327C213.213 47.0015 212.604 44.7567 212.604 41.7983C212.604 38.8088 213.224 36.5483 214.463 35.0171C215.703 33.4754 217.323 32.7046 219.323 32.7046C220.156 32.7046 220.89 32.8192 221.526 33.0483C222.161 33.2775 222.708 33.5848 223.166 33.9702C223.635 34.3556 224.031 34.7879 224.354 35.2671H224.51C224.448 34.9338 224.37 34.4442 224.276 33.7983C224.192 33.1421 224.151 32.4702 224.151 31.7827V26.189H228.932V50.5015H225.276L224.354 48.2358H224.151C223.849 48.715 223.469 49.1525 223.01 49.5483C222.562 49.9338 222.026 50.241 221.401 50.4702C220.776 50.6994 220.041 50.814 219.198 50.814ZM220.87 47.0171C222.172 47.0171 223.088 46.6317 223.62 45.8608C224.161 45.0796 224.448 43.9077 224.479 42.3452V41.8296C224.479 40.1317 224.219 38.8348 223.698 37.939C223.177 37.0327 222.208 36.5796 220.791 36.5796C219.739 36.5796 218.916 37.0327 218.323 37.939C217.729 38.8452 217.432 40.1525 217.432 41.8608C217.432 43.5692 217.729 44.8556 218.323 45.7202C218.927 46.5848 219.776 47.0171 220.87 47.0171ZM256.588 50.5015L254.932 45.064H246.604L244.948 50.5015H239.729L247.791 27.564H253.713L261.807 50.5015H256.588ZM253.776 41.0015L252.12 35.689C252.015 35.3348 251.875 34.8817 251.698 34.3296C251.531 33.7671 251.359 33.1994 251.182 32.6265C251.015 32.0431 250.88 31.5379 250.776 31.1108C250.672 31.5379 250.526 32.0692 250.338 32.7046C250.161 33.3296 249.989 33.9233 249.823 34.4858C249.656 35.0483 249.536 35.4494 249.463 35.689L247.823 41.0015L253.776 41.0015ZM269.854 50.814C267.906 50.814 266.317 50.0535 265.088 48.5327C263.87 47.0015 263.26 44.7567 263.26 41.7983C263.26 38.8088 263.88 36.5483 265.12 35.0171C266.359 33.4754 267.979 32.7046 269.979 32.7046C270.812 32.7046 271.547 32.8192 272.182 33.0483C272.817 33.2775 273.364 33.5848 273.823 33.9702C274.291 34.3556 274.687 34.7879 275.01 35.2671H275.166C275.104 34.9338 275.026 34.4442 274.932 33.7983C274.849 33.1421 274.807 32.4702 274.807 31.7827V26.189L279.588 26.189V50.5015H275.932L275.01 48.2358H274.807C274.505 48.715 274.125 49.1525 273.666 49.5483C273.219 49.9338 272.682 50.241 272.057 50.4702C271.432 50.6994 270.698 50.814 269.854 50.814ZM271.526 47.0171C272.828 47.0171 273.745 46.6317 274.276 45.8608C274.817 45.0796 275.104 43.9077 275.135 42.3452V41.8296C275.135 40.1317 274.875 38.8348 274.354 37.939C273.833 37.0327 272.864 36.5796 271.448 36.5796C270.396 36.5796 269.573 37.0327 268.979 37.939C268.385 38.8452 268.088 40.1525 268.088 41.8608C268.088 43.5692 268.385 44.8556 268.979 45.7202C269.583 46.5848 270.432 47.0171 271.526 47.0171ZM296.76 45.314C296.76 46.5015 296.479 47.5067 295.916 48.3296C295.364 49.1421 294.536 49.7619 293.432 50.189C292.328 50.6056 290.953 50.814 289.307 50.814C288.088 50.814 287.041 50.7358 286.166 50.5796C285.302 50.4233 284.427 50.1629 283.541 49.7983V45.8608C284.489 46.2879 285.505 46.6421 286.588 46.9233C287.682 47.1942 288.64 47.3296 289.463 47.3296C290.39 47.3296 291.052 47.1942 291.448 46.9233C291.854 46.6421 292.057 46.2775 292.057 45.8296C292.057 45.5379 291.974 45.2775 291.807 45.0483C291.651 44.8088 291.307 44.5431 290.776 44.2515C290.245 43.9494 289.411 43.5588 288.276 43.0796C287.182 42.6213 286.281 42.1577 285.573 41.689C284.875 41.2202 284.354 40.6681 284.01 40.0327C283.677 39.3869 283.51 38.5692 283.51 37.5796C283.51 35.965 284.135 34.7515 285.385 33.939C286.646 33.116 288.328 32.7046 290.432 32.7046C291.515 32.7046 292.547 32.814 293.526 33.0327C294.515 33.2515 295.531 33.6004 296.573 34.0796L295.135 37.5171C294.271 37.1421 293.453 36.8348 292.682 36.5952C291.922 36.3556 291.146 36.2358 290.354 36.2358C289.656 36.2358 289.13 36.3296 288.776 36.5171C288.422 36.7046 288.245 36.991 288.245 37.3765C288.245 37.6577 288.333 37.9077 288.51 38.1265C288.698 38.3452 289.052 38.59 289.573 38.8608C290.104 39.1213 290.88 39.4598 291.901 39.8765C292.89 40.2827 293.75 40.7098 294.479 41.1577C295.208 41.5952 295.771 42.1421 296.166 42.7983C296.562 43.4442 296.76 44.2827 296.76 45.314Z" fill="#F7F6F6"/>
</g>
<defs>
<filter id="filter0_d_226_199" x="0.947716" y="0.916992" width="336.277" height="82" filterUnits="userSpaceOnUse" color-interpolation-filters="sRGB">
<feFlood flood-opacity="0" result="BackgroundImageFix"/>
<feColorMatrix in="SourceAlpha" type="matrix" values="0 0 0 0 0 0 0 0 0 0 0 0 0 0 0 0 0 0 127 0" result="hardAlpha"/>
<feOffset dy="4"/>
<feGaussianBlur stdDeviation="2"/>
<feComposite in2="hardAlpha" operator="out"/>
<feColorMatrix type="matrix" values="0 0 0 0 0 0 0 0 0 0 0 0 0 0 0 0 0 0 0.25 0"/>
<feBlend mode="normal" in2="BackgroundImageFix" result="effect1_dropShadow_226_199"/>
<feBlend mode="normal" in="SourceGraphic" in2="effect1_dropShadow_226_199" result="shape"/>
</filter>
<clipPath id="clip0_226_199">
<rect width="40" height="40" fill="white" transform="translate(38.9477 17.917)"/>
</clipPath>
</defs>
</svg>
