<svg width="336" height="83" viewBox="0 0 336 83" fill="none" xmlns="http://www.w3.org/2000/svg">
<g filter="url(#filter0_d_226_206)">
<rect x="4.00012" y="0.349121" width="327.158" height="74" rx="10" fill="#CF0201" shape-rendering="crispEdges"/>
<path d="M64.8323 49.8467C64.8323 50.1782 64.7006 50.4961 64.4662 50.7306C64.2317 50.965 63.9138 51.0967 63.5823 51.0967H33.5823C33.2508 51.0967 32.9328 50.965 32.6984 50.7306C32.464 50.4961 32.3323 50.1782 32.3323 49.8467C32.3323 49.5152 32.464 49.1972 32.6984 48.9628C32.9328 48.7284 33.2508 48.5967 33.5823 48.5967H63.5823C63.9138 48.5967 64.2317 48.7284 64.4662 48.9628C64.7006 49.1972 64.8323 49.5152 64.8323 49.8467ZM64.8323 26.0967V43.5967C64.8323 44.2597 64.5689 44.8956 64.1 45.3644C63.6312 45.8333 62.9953 46.0967 62.3323 46.0967H34.8323C34.1692 46.0967 33.5333 45.8333 33.0645 45.3644C32.5957 44.8956 32.3323 44.2597 32.3323 43.5967V26.0967C32.3323 25.4336 32.5957 24.7978 33.0645 24.3289C33.5333 23.8601 34.1692 23.5967 34.8323 23.5967H62.3323C62.9953 23.5967 63.6312 23.8601 64.1 24.3289C64.5689 24.7978 64.8323 25.4336 64.8323 26.0967ZM54.2073 34.8467C54.2072 34.6458 54.1588 34.448 54.066 34.2698C53.9733 34.0917 53.839 33.9385 53.6745 33.8232L47.4245 29.4482C47.2372 29.317 47.0175 29.2397 46.7893 29.2247C46.5611 29.2097 46.3332 29.2576 46.1304 29.3631C45.9275 29.4687 45.7575 29.6278 45.6388 29.8233C45.5201 30.0187 45.4573 30.243 45.4573 30.4717V39.2217C45.4573 39.4503 45.5201 39.6746 45.6388 39.8701C45.7575 40.0655 45.9275 40.2247 46.1304 40.3302C46.3332 40.4358 46.5611 40.4836 46.7893 40.4686C47.0175 40.4536 47.2372 40.3763 47.4245 40.2451L53.6745 35.8701C53.839 35.7549 53.9733 35.6017 54.066 35.4236C54.1588 35.2454 54.2072 35.0475 54.2073 34.8467Z" fill="#F7F6F6"/>
<path d="M99.376 26.5054L91.6104 49.3491H86.3291L78.5791 26.5054H83.4697L87.7666 40.0991C87.8395 40.3283 87.9593 40.7606 88.126 41.396C88.2926 42.021 88.4593 42.6877 88.626 43.396C88.8031 44.0939 88.9229 44.672 88.9854 45.1304C89.0479 44.672 89.1572 44.0939 89.3135 43.396C89.4801 42.6981 89.6416 42.0366 89.7979 41.4116C89.9645 40.7762 90.0843 40.3387 90.1572 40.0991L94.4854 26.5054H99.376ZM106.657 31.8804V49.3491H101.892V31.8804H106.657ZM104.282 25.0366C104.991 25.0366 105.6 25.2033 106.11 25.5366C106.621 25.8595 106.876 26.4689 106.876 27.3647C106.876 28.2502 106.621 28.8647 106.11 29.2085C105.6 29.5418 104.991 29.7085 104.282 29.7085C103.563 29.7085 102.949 29.5418 102.438 29.2085C101.938 28.8647 101.688 28.2502 101.688 27.3647C101.688 26.4689 101.938 25.8595 102.438 25.5366C102.949 25.2033 103.563 25.0366 104.282 25.0366ZM117.204 49.6616C115.256 49.6616 113.668 48.9012 112.438 47.3804C111.22 45.8491 110.61 43.6043 110.61 40.646C110.61 37.6564 111.23 35.396 112.47 33.8647C113.709 32.3231 115.329 31.5522 117.329 31.5522C118.162 31.5522 118.897 31.6668 119.532 31.896C120.168 32.1252 120.715 32.4325 121.173 32.8179C121.642 33.2033 122.037 33.6356 122.36 34.1147H122.517C122.454 33.7814 122.376 33.2918 122.282 32.646C122.199 31.9897 122.157 31.3179 122.157 30.6304V25.0366H126.938V49.3491H123.282L122.36 47.0835H122.157C121.855 47.5627 121.475 48.0002 121.017 48.396C120.569 48.7814 120.032 49.0887 119.407 49.3179C118.782 49.547 118.048 49.6616 117.204 49.6616ZM118.876 45.8647C120.178 45.8647 121.095 45.4793 121.626 44.7085C122.168 43.9272 122.454 42.7554 122.485 41.1929V40.6772C122.485 38.9793 122.225 37.6825 121.704 36.7866C121.183 35.8804 120.215 35.4272 118.798 35.4272C117.746 35.4272 116.923 35.8804 116.329 36.7866C115.735 37.6929 115.438 39.0002 115.438 40.7085C115.438 42.4168 115.735 43.7033 116.329 44.5679C116.933 45.4325 117.782 45.8647 118.876 45.8647ZM139.126 31.5522C140.741 31.5522 142.131 31.8647 143.298 32.4897C144.465 33.1043 145.366 34.0002 146.001 35.1772C146.636 36.3543 146.954 37.7918 146.954 39.4897V41.8022H135.688C135.741 43.146 136.142 44.2033 136.892 44.9741C137.652 45.7345 138.704 46.1147 140.048 46.1147C141.162 46.1147 142.183 46.0002 143.11 45.771C144.037 45.5418 144.991 45.1981 145.97 44.7397V48.4272C145.105 48.8543 144.199 49.1668 143.251 49.3647C142.313 49.5627 141.173 49.6616 139.829 49.6616C138.079 49.6616 136.527 49.3387 135.173 48.6929C133.829 48.047 132.772 47.0627 132.001 45.7397C131.241 44.4168 130.86 42.7502 130.86 40.7397C130.86 38.6981 131.204 37.0002 131.892 35.646C132.59 34.2814 133.558 33.2606 134.798 32.5835C136.037 31.896 137.48 31.5522 139.126 31.5522ZM139.157 34.9429C138.23 34.9429 137.459 35.2397 136.845 35.8335C136.241 36.4272 135.892 37.3595 135.798 38.6304H142.485C142.475 37.922 142.345 37.2918 142.095 36.7397C141.855 36.1877 141.491 35.7502 141.001 35.4272C140.522 35.1043 139.907 34.9429 139.157 34.9429ZM166.704 40.5835C166.704 42.0418 166.506 43.3335 166.11 44.4585C165.725 45.5835 165.157 46.5366 164.407 47.3179C163.668 48.0887 162.772 48.672 161.72 49.0679C160.678 49.4637 159.501 49.6616 158.188 49.6616C156.959 49.6616 155.829 49.4637 154.798 49.0679C153.777 48.672 152.886 48.0887 152.126 47.3179C151.376 46.5366 150.793 45.5835 150.376 44.4585C149.97 43.3335 149.767 42.0418 149.767 40.5835C149.767 38.646 150.11 37.0054 150.798 35.6616C151.485 34.3179 152.465 33.297 153.735 32.5991C155.006 31.9012 156.522 31.5522 158.282 31.5522C159.918 31.5522 161.366 31.9012 162.626 32.5991C163.897 33.297 164.892 34.3179 165.61 35.6616C166.34 37.0054 166.704 38.646 166.704 40.5835ZM154.626 40.5835C154.626 41.7293 154.751 42.6929 155.001 43.4741C155.251 44.2554 155.642 44.8439 156.173 45.2397C156.704 45.6356 157.397 45.8335 158.251 45.8335C159.095 45.8335 159.777 45.6356 160.298 45.2397C160.829 44.8439 161.215 44.2554 161.454 43.4741C161.704 42.6929 161.829 41.7293 161.829 40.5835C161.829 39.4272 161.704 38.4689 161.454 37.7085C161.215 36.9377 160.829 36.3595 160.298 35.9741C159.767 35.5887 159.074 35.396 158.22 35.396C156.959 35.396 156.043 35.8283 155.47 36.6929C154.907 37.5575 154.626 38.8543 154.626 40.5835ZM189.032 30.2085C188.105 30.2085 187.282 30.3908 186.563 30.7554C185.855 31.1095 185.256 31.6252 184.767 32.3022C184.287 32.9793 183.923 33.797 183.673 34.7554C183.423 35.7137 183.298 36.7918 183.298 37.9897C183.298 39.6043 183.496 40.9845 183.892 42.1304C184.298 43.2658 184.923 44.1356 185.767 44.7397C186.61 45.3335 187.699 45.6304 189.032 45.6304C189.959 45.6304 190.886 45.5262 191.813 45.3179C192.751 45.1095 193.767 44.8127 194.86 44.4272V48.4897C193.85 48.9064 192.855 49.2033 191.876 49.3804C190.897 49.5679 189.798 49.6616 188.579 49.6616C186.225 49.6616 184.287 49.1772 182.767 48.2085C181.256 47.2293 180.136 45.8647 179.407 44.1147C178.678 42.3543 178.313 40.3022 178.313 37.9585C178.313 36.2293 178.548 34.646 179.017 33.2085C179.485 31.771 180.173 30.5262 181.079 29.4741C181.985 28.422 183.105 27.6095 184.438 27.0366C185.772 26.4637 187.303 26.1772 189.032 26.1772C190.168 26.1772 191.303 26.3231 192.438 26.6147C193.584 26.896 194.678 27.2866 195.72 27.7866L194.157 31.7241C193.303 31.3179 192.444 30.9637 191.579 30.6616C190.715 30.3595 189.866 30.2085 189.032 30.2085ZM215.235 40.5835C215.235 42.0418 215.037 43.3335 214.642 44.4585C214.256 45.5835 213.688 46.5366 212.938 47.3179C212.199 48.0887 211.303 48.672 210.251 49.0679C209.209 49.4637 208.032 49.6616 206.72 49.6616C205.491 49.6616 204.36 49.4637 203.329 49.0679C202.308 48.672 201.418 48.0887 200.657 47.3179C199.907 46.5366 199.324 45.5835 198.907 44.4585C198.501 43.3335 198.298 42.0418 198.298 40.5835C198.298 38.646 198.642 37.0054 199.329 35.6616C200.017 34.3179 200.996 33.297 202.267 32.5991C203.537 31.9012 205.053 31.5522 206.813 31.5522C208.449 31.5522 209.897 31.9012 211.157 32.5991C212.428 33.297 213.423 34.3179 214.142 35.6616C214.871 37.0054 215.235 38.646 215.235 40.5835ZM203.157 40.5835C203.157 41.7293 203.282 42.6929 203.532 43.4741C203.782 44.2554 204.173 44.8439 204.704 45.2397C205.235 45.6356 205.928 45.8335 206.782 45.8335C207.626 45.8335 208.308 45.6356 208.829 45.2397C209.36 44.8439 209.746 44.2554 209.985 43.4741C210.235 42.6929 210.36 41.7293 210.36 40.5835C210.36 39.4272 210.235 38.4689 209.985 37.7085C209.746 36.9377 209.36 36.3595 208.829 35.9741C208.298 35.5887 207.605 35.396 206.751 35.396C205.491 35.396 204.574 35.8283 204.001 36.6929C203.438 37.5575 203.157 38.8543 203.157 40.5835ZM229.095 31.5522C230.959 31.5522 232.459 32.0627 233.595 33.0835C234.73 34.0939 235.298 35.7189 235.298 37.9585V49.3491H230.532V39.146C230.532 37.896 230.303 36.9533 229.845 36.3179C229.397 35.6825 228.688 35.3647 227.72 35.3647C226.261 35.3647 225.267 35.8595 224.735 36.8491C224.204 37.8387 223.938 39.2658 223.938 41.1304V49.3491H219.173V31.8804H222.813L223.454 34.1147H223.72C224.095 33.5106 224.558 33.021 225.11 32.646C225.673 32.271 226.293 31.995 226.97 31.8179C227.657 31.6408 228.366 31.5522 229.095 31.5522ZM247.563 45.8647C248.084 45.8647 248.59 45.8127 249.079 45.7085C249.579 45.6043 250.074 45.4741 250.563 45.3179V48.8647C250.053 49.0939 249.418 49.2814 248.657 49.4272C247.907 49.5835 247.084 49.6616 246.188 49.6616C245.147 49.6616 244.209 49.495 243.376 49.1616C242.553 48.8179 241.902 48.2293 241.423 47.396C240.954 46.5522 240.72 45.3804 240.72 43.8804V35.4585H238.438V33.4429L241.063 31.8491L242.438 28.1616H245.485V31.8804H250.376V35.4585H245.485V43.8804C245.485 44.547 245.673 45.047 246.048 45.3804C246.433 45.7033 246.938 45.8647 247.563 45.8647ZM261.313 31.5522C262.928 31.5522 264.319 31.8647 265.485 32.4897C266.652 33.1043 267.553 34.0002 268.188 35.1772C268.824 36.3543 269.142 37.7918 269.142 39.4897V41.8022H257.876C257.928 43.146 258.329 44.2033 259.079 44.9741C259.84 45.7345 260.892 46.1147 262.235 46.1147C263.35 46.1147 264.371 46.0002 265.298 45.771C266.225 45.5418 267.178 45.1981 268.157 44.7397V48.4272C267.293 48.8543 266.386 49.1668 265.438 49.3647C264.501 49.5627 263.36 49.6616 262.017 49.6616C260.267 49.6616 258.715 49.3387 257.36 48.6929C256.017 48.047 254.959 47.0627 254.188 45.7397C253.428 44.4168 253.048 42.7502 253.048 40.7397C253.048 38.6981 253.392 37.0002 254.079 35.646C254.777 34.2814 255.746 33.2606 256.985 32.5835C258.225 31.896 259.668 31.5522 261.313 31.5522ZM261.345 34.9429C260.418 34.9429 259.647 35.2397 259.032 35.8335C258.428 36.4272 258.079 37.3595 257.985 38.6304H264.673C264.662 37.922 264.532 37.2918 264.282 36.7397C264.043 36.1877 263.678 35.7502 263.188 35.4272C262.709 35.1043 262.095 34.9429 261.345 34.9429ZM282.938 31.5522C284.803 31.5522 286.303 32.0627 287.438 33.0835C288.574 34.0939 289.142 35.7189 289.142 37.9585V49.3491H284.376V39.146C284.376 37.896 284.147 36.9533 283.688 36.3179C283.241 35.6825 282.532 35.3647 281.563 35.3647C280.105 35.3647 279.11 35.8595 278.579 36.8491C278.048 37.8387 277.782 39.2658 277.782 41.1304V49.3491H273.017V31.8804H276.657L277.298 34.1147H277.563C277.938 33.5106 278.402 33.021 278.954 32.646C279.517 32.271 280.136 31.995 280.813 31.8179C281.501 31.6408 282.209 31.5522 282.938 31.5522ZM301.407 45.8647C301.928 45.8647 302.433 45.8127 302.923 45.7085C303.423 45.6043 303.918 45.4741 304.407 45.3179V48.8647C303.897 49.0939 303.261 49.2814 302.501 49.4272C301.751 49.5835 300.928 49.6616 300.032 49.6616C298.991 49.6616 298.053 49.495 297.22 49.1616C296.397 48.8179 295.746 48.2293 295.267 47.396C294.798 46.5522 294.563 45.3804 294.563 43.8804V35.4585H292.282V33.4429L294.907 31.8491L296.282 28.1616H299.329V31.8804H304.22V35.4585H299.329V43.8804C299.329 44.547 299.517 45.047 299.892 45.3804C300.277 45.7033 300.782 45.8647 301.407 45.8647Z" fill="#F7F6F6"/>
</g>
<defs>
<filter id="filter0_d_226_206" x="0.00012207" y="0.349121" width="335.158" height="82" filterUnits="userSpaceOnUse" color-interpolation-filters="sRGB">
<feFlood flood-opacity="0" result="BackgroundImageFix"/>
<feColorMatrix in="SourceAlpha" type="matrix" values="0 0 0 0 0 0 0 0 0 0 0 0 0 0 0 0 0 0 127 0" result="hardAlpha"/>
<feOffset dy="4"/>
<feGaussianBlur stdDeviation="2"/>
<feComposite in2="hardAlpha" operator="out"/>
<feColorMatrix type="matrix" values="0 0 0 0 0 0 0 0 0 0 0 0 0 0 0 0 0 0 0.25 0"/>
<feBlend mode="normal" in2="BackgroundImageFix" result="effect1_dropShadow_226_206"/>
<feBlend mode="normal" in="SourceGraphic" in2="effect1_dropShadow_226_206" result="shape"/>
</filter>
</defs>
</svg>
