<svg width="294" height="83" viewBox="0 0 294 83" fill="none" xmlns="http://www.w3.org/2000/svg">
<g filter="url(#filter0_d_226_201)">
<rect x="4.52103" y="0.436523" width="284.563" height="74" rx="10" fill="#CF0201" shape-rendering="crispEdges"/>
<path d="M57.6158 29.624C57.5207 29.4811 57.3946 29.3645 57.2481 29.284C57.1015 29.2035 56.9388 29.1614 56.7737 29.1613H34.7773L33.1123 23.0867C32.4593 20.6947 30.9077 20.4365 30.2714 20.4365H25.8318C25.2627 20.4365 24.8026 20.9239 24.8026 21.5253C24.8026 22.1268 25.2632 22.6141 25.8317 22.6141H30.2708C30.4113 22.6141 30.8398 22.6141 31.1321 23.6827L36.86 45.9529C36.9844 46.4228 37.3891 46.7473 37.8508 46.7473H51.8417C52.276 46.7473 52.6636 46.4595 52.8103 46.0269L57.7417 30.6185C57.8552 30.2846 57.808 29.9129 57.6158 29.624H57.6158ZM51.1175 44.5703H38.632L35.3558 31.3395H55.3104L51.1175 44.5703ZM49.0762 48.9541C47.6449 48.9541 46.4851 50.181 46.4851 51.6953C46.4851 53.2095 47.6449 54.4365 49.0762 54.4365C50.5076 54.4365 51.6673 53.2095 51.6673 51.6953C51.6673 50.181 50.5076 48.9541 49.0762 48.9541ZM39.7483 48.9541C38.3169 48.9541 37.1572 50.181 37.1572 51.6953C37.1572 53.2095 38.3169 54.4365 39.7483 54.4365C41.1796 54.4365 42.3394 53.2095 42.3394 51.6953C42.3394 50.181 41.1796 48.9541 39.7483 48.9541Z" fill="#F7F6F6"/>
<path d="M83.8338 49.4365H70.6776V26.5928H83.8338V30.5615H75.5213V35.5771H83.2557V39.5459H75.5213V45.4365H83.8338V49.4365ZM86.6932 42.8115V38.9053H95.0838V42.8115H86.6932ZM108.631 30.2959C107.704 30.2959 106.881 30.4782 106.162 30.8428C105.454 31.1969 104.855 31.7126 104.365 32.3896C103.886 33.0667 103.521 33.8844 103.271 34.8428C103.021 35.8011 102.896 36.8792 102.896 38.0771C102.896 39.6917 103.094 41.0719 103.49 42.2178C103.896 43.3532 104.521 44.223 105.365 44.8271C106.209 45.4209 107.297 45.7178 108.631 45.7178C109.558 45.7178 110.485 45.6136 111.412 45.4053C112.349 45.1969 113.365 44.9001 114.459 44.5146V48.5771C113.448 48.9938 112.454 49.2907 111.474 49.4678C110.495 49.6553 109.396 49.749 108.178 49.749C105.823 49.749 103.886 49.2646 102.365 48.2959C100.855 47.3167 99.7348 45.9521 99.0057 44.2021C98.2765 42.4417 97.9119 40.3896 97.9119 38.0459C97.9119 36.3167 98.1463 34.7334 98.6151 33.2959C99.0838 31.8584 99.7713 30.6136 100.678 29.5615C101.584 28.5094 102.704 27.6969 104.037 27.124C105.37 26.5511 106.902 26.2646 108.631 26.2646C109.766 26.2646 110.902 26.4105 112.037 26.7021C113.183 26.9834 114.277 27.374 115.318 27.874L113.756 31.8115C112.902 31.4053 112.042 31.0511 111.178 30.749C110.313 30.4469 109.464 30.2959 108.631 30.2959ZM134.834 40.6709C134.834 42.1292 134.636 43.4209 134.24 44.5459C133.855 45.6709 133.287 46.624 132.537 47.4053C131.797 48.1761 130.902 48.7594 129.849 49.1553C128.808 49.5511 127.631 49.749 126.318 49.749C125.089 49.749 123.959 49.5511 122.928 49.1553C121.907 48.7594 121.016 48.1761 120.256 47.4053C119.506 46.624 118.922 45.6709 118.506 44.5459C118.099 43.4209 117.896 42.1292 117.896 40.6709C117.896 38.7334 118.24 37.0928 118.928 35.749C119.615 34.4053 120.594 33.3844 121.865 32.6865C123.136 31.9886 124.652 31.6396 126.412 31.6396C128.047 31.6396 129.495 31.9886 130.756 32.6865C132.027 33.3844 133.021 34.4053 133.74 35.749C134.469 37.0928 134.834 38.7334 134.834 40.6709ZM122.756 40.6709C122.756 41.8167 122.881 42.7803 123.131 43.5615C123.381 44.3428 123.771 44.9313 124.303 45.3271C124.834 45.723 125.527 45.9209 126.381 45.9209C127.224 45.9209 127.907 45.723 128.428 45.3271C128.959 44.9313 129.344 44.3428 129.584 43.5615C129.834 42.7803 129.959 41.8167 129.959 40.6709C129.959 39.5146 129.834 38.5563 129.584 37.7959C129.344 37.0251 128.959 36.4469 128.428 36.0615C127.896 35.6761 127.204 35.4834 126.349 35.4834C125.089 35.4834 124.172 35.9157 123.599 36.7803C123.037 37.6449 122.756 38.9417 122.756 40.6709ZM159.287 31.6396C161.266 31.6396 162.761 32.1501 163.771 33.1709C164.792 34.1813 165.303 35.8063 165.303 38.0459V49.4365H160.521V39.2334C160.521 37.9834 160.308 37.0407 159.881 36.4053C159.454 35.7699 158.792 35.4521 157.896 35.4521C156.636 35.4521 155.74 35.9053 155.209 36.8115C154.678 37.7074 154.412 38.9938 154.412 40.6709V49.4365H149.646V39.2334C149.646 38.4001 149.553 37.7021 149.365 37.1396C149.178 36.5771 148.891 36.1553 148.506 35.874C148.12 35.5928 147.625 35.4521 147.021 35.4521C146.136 35.4521 145.438 35.6761 144.928 36.124C144.428 36.5615 144.068 37.2126 143.849 38.0771C143.641 38.9313 143.537 39.9782 143.537 41.2178V49.4365H138.771V31.9678H142.412L143.053 34.2021H143.318C143.672 33.598 144.115 33.1084 144.646 32.7334C145.188 32.3584 145.782 32.0824 146.428 31.9053C147.073 31.7282 147.73 31.6396 148.396 31.6396C149.678 31.6396 150.761 31.848 151.646 32.2646C152.542 32.6813 153.23 33.3271 153.709 34.2021H154.131C154.652 33.3063 155.386 32.6553 156.334 32.249C157.292 31.8428 158.277 31.6396 159.287 31.6396ZM190.724 31.6396C192.704 31.6396 194.198 32.1501 195.209 33.1709C196.23 34.1813 196.74 35.8063 196.74 38.0459V49.4365L191.959 49.4365V39.2334C191.959 37.9834 191.745 37.0407 191.318 36.4053C190.891 35.7699 190.23 35.4521 189.334 35.4521C188.073 35.4521 187.178 35.9053 186.646 36.8115C186.115 37.7074 185.849 38.9938 185.849 40.6709V49.4365H181.084V39.2334C181.084 38.4001 180.99 37.7021 180.803 37.1396C180.615 36.5771 180.329 36.1553 179.943 35.874C179.558 35.5928 179.063 35.4521 178.459 35.4521C177.573 35.4521 176.875 35.6761 176.365 36.124C175.865 36.5615 175.506 37.2126 175.287 38.0771C175.079 38.9313 174.974 39.9782 174.974 41.2178V49.4365H170.209V31.9678H173.849L174.49 34.2021H174.756C175.11 33.598 175.553 33.1084 176.084 32.7334C176.625 32.3584 177.219 32.0824 177.865 31.9053C178.511 31.7282 179.167 31.6396 179.834 31.6396C181.115 31.6396 182.198 31.848 183.084 32.2646C183.98 32.6813 184.667 33.3271 185.146 34.2021H185.568C186.089 33.3063 186.823 32.6553 187.771 32.249C188.73 31.8428 189.714 31.6396 190.724 31.6396ZM208.849 31.6396C210.464 31.6396 211.855 31.9521 213.021 32.5771C214.188 33.1917 215.089 34.0876 215.724 35.2646C216.36 36.4417 216.678 37.8792 216.678 39.5771V41.8896H205.412C205.464 43.2334 205.865 44.2907 206.615 45.0615C207.375 45.8219 208.428 46.2021 209.771 46.2021C210.886 46.2021 211.907 46.0876 212.834 45.8584C213.761 45.6292 214.714 45.2855 215.693 44.8271V48.5146C214.829 48.9417 213.922 49.2542 212.974 49.4521C212.037 49.6501 210.896 49.749 209.553 49.749C207.803 49.749 206.25 49.4261 204.896 48.7803C203.553 48.1344 202.495 47.1501 201.724 45.8271C200.964 44.5042 200.584 42.8376 200.584 40.8271C200.584 38.7855 200.928 37.0876 201.615 35.7334C202.313 34.3688 203.282 33.348 204.521 32.6709C205.761 31.9834 207.204 31.6396 208.849 31.6396ZM208.881 35.0303C207.954 35.0303 207.183 35.3271 206.568 35.9209C205.964 36.5146 205.615 37.4469 205.521 38.7178H212.209C212.198 38.0094 212.068 37.3792 211.818 36.8271C211.579 36.2751 211.214 35.8376 210.724 35.5146C210.245 35.1917 209.631 35.0303 208.881 35.0303ZM230.303 31.6396C230.542 31.6396 230.818 31.6553 231.131 31.6865C231.454 31.7074 231.714 31.7386 231.912 31.7803L231.553 36.249C231.396 36.1969 231.172 36.1605 230.881 36.1396C230.599 36.1084 230.355 36.0928 230.146 36.0928C229.532 36.0928 228.933 36.1709 228.349 36.3271C227.777 36.4834 227.261 36.7386 226.803 37.0928C226.344 37.4365 225.98 37.8949 225.709 38.4678C225.448 39.0303 225.318 39.723 225.318 40.5459V49.4365H220.553V31.9678H224.162L224.865 34.9053H225.099C225.443 34.3115 225.87 33.7699 226.381 33.2803C226.902 32.7803 227.49 32.3844 228.146 32.0928C228.813 31.7907 229.532 31.6396 230.303 31.6396ZM242.178 49.749C240.448 49.749 238.974 49.4365 237.756 48.8115C236.537 48.1761 235.61 47.1969 234.974 45.874C234.339 44.5511 234.021 42.8584 234.021 40.7959C234.021 38.6605 234.381 36.9209 235.099 35.5771C235.829 34.223 236.834 33.2282 238.115 32.5928C239.407 31.9574 240.902 31.6396 242.599 31.6396C243.808 31.6396 244.849 31.7594 245.724 31.999C246.61 32.2282 247.381 32.5042 248.037 32.8271L246.631 36.5146C245.881 36.2126 245.183 35.9678 244.537 35.7803C243.891 35.5824 243.245 35.4834 242.599 35.4834C241.766 35.4834 241.073 35.6813 240.521 36.0771C239.969 36.4626 239.558 37.0459 239.287 37.8271C239.016 38.6084 238.881 39.5876 238.881 40.7646C238.881 41.9209 239.027 42.8792 239.318 43.6396C239.61 44.4001 240.032 44.9678 240.584 45.3428C241.136 45.7074 241.808 45.8896 242.599 45.8896C243.589 45.8896 244.469 45.7594 245.24 45.499C246.011 45.2282 246.761 44.8532 247.49 44.374V48.4521C246.761 48.9105 245.995 49.2386 245.193 49.4365C244.402 49.6449 243.396 49.749 242.178 49.749ZM258.756 31.6396C260.37 31.6396 261.761 31.9521 262.928 32.5771C264.094 33.1917 264.995 34.0876 265.631 35.2646C266.266 36.4417 266.584 37.8792 266.584 39.5771V41.8896L255.318 41.8896C255.37 43.2334 255.771 44.2907 256.521 45.0615C257.282 45.8219 258.334 46.2021 259.678 46.2021C260.792 46.2021 261.813 46.0876 262.74 45.8584C263.667 45.6292 264.62 45.2855 265.599 44.8271V48.5146C264.735 48.9417 263.829 49.2542 262.881 49.4521C261.943 49.6501 260.803 49.749 259.459 49.749C257.709 49.749 256.157 49.4261 254.803 48.7803C253.459 48.1344 252.402 47.1501 251.631 45.8271C250.87 44.5042 250.49 42.8376 250.49 40.8271C250.49 38.7855 250.834 37.0876 251.521 35.7334C252.219 34.3688 253.188 33.348 254.428 32.6709C255.667 31.9834 257.11 31.6396 258.756 31.6396ZM258.787 35.0303C257.86 35.0303 257.089 35.3271 256.474 35.9209C255.87 36.5146 255.521 37.4469 255.428 38.7178L262.115 38.7178C262.105 38.0094 261.974 37.3792 261.724 36.8271C261.485 36.2751 261.12 35.8376 260.631 35.5146C260.152 35.1917 259.537 35.0303 258.787 35.0303Z" fill="#F7F6F6"/>
</g>
<defs>
<filter id="filter0_d_226_201" x="0.521027" y="0.436523" width="292.563" height="82" filterUnits="userSpaceOnUse" color-interpolation-filters="sRGB">
<feFlood flood-opacity="0" result="BackgroundImageFix"/>
<feColorMatrix in="SourceAlpha" type="matrix" values="0 0 0 0 0 0 0 0 0 0 0 0 0 0 0 0 0 0 127 0" result="hardAlpha"/>
<feOffset dy="4"/>
<feGaussianBlur stdDeviation="2"/>
<feComposite in2="hardAlpha" operator="out"/>
<feColorMatrix type="matrix" values="0 0 0 0 0 0 0 0 0 0 0 0 0 0 0 0 0 0 0.25 0"/>
<feBlend mode="normal" in2="BackgroundImageFix" result="effect1_dropShadow_226_201"/>
<feBlend mode="normal" in="SourceGraphic" in2="effect1_dropShadow_226_201" result="shape"/>
</filter>
</defs>
</svg>
