<svg width="292" height="83" viewBox="0 0 292 83" fill="none" xmlns="http://www.w3.org/2000/svg">
<g filter="url(#filter0_d_226_207)">
<rect x="4.86774" y="0.578125" width="282.905" height="74" rx="10" fill="#CF0201" shape-rendering="crispEdges"/>
<path d="M68.4442 56.4113L54.6109 42.578H35.9859C35.9859 39.2169 37.2848 36.7102 39.8825 35.058C42.4803 33.4057 45.3481 32.5791 48.4859 32.578C48.6248 32.578 48.7775 32.5852 48.9442 32.5996C49.1109 32.6141 49.2637 32.6207 49.4025 32.6196V37.328L35.4442 23.4113L37.8192 21.0363L70.8192 54.0363L68.4442 56.4113ZM35.9859 49.2446V45.9113H60.9859V49.2446H35.9859ZM37.6525 55.9113C37.1803 55.9113 36.7848 55.7513 36.4659 55.4313C36.147 55.1113 35.987 54.7157 35.9859 54.2446V52.578H60.9859V54.2446C60.9859 54.7169 60.8259 55.113 60.5059 55.433C60.1859 55.753 59.7903 55.9124 59.3192 55.9113H37.6525ZM70.3609 48.828L53.4025 31.9113L52.6525 25.9113H60.9859V19.2446H64.3192V25.9113H72.6525L70.3609 48.828Z" fill="#F7F6F6"/>
<path d="M107.461 49.5781H101.305L91.3673 32.2969H91.2267C91.2684 33.0156 91.3048 33.7396 91.3361 34.4688C91.3673 35.1979 91.3986 35.9271 91.4298 36.6562C91.4611 37.375 91.4923 38.099 91.5236 38.8281V49.5781H87.1954V26.7344H93.3048L103.227 43.8438H103.336C103.315 43.1354 103.289 42.4323 103.258 41.7344C103.227 41.0365 103.195 40.3385 103.164 39.6406C103.143 38.9427 103.123 38.2448 103.102 37.5469V26.7344H107.461V49.5781ZM128.883 32.1094V49.5781H125.227L124.586 47.3438H124.336C123.961 47.9375 123.492 48.4219 122.93 48.7969C122.367 49.1719 121.748 49.4479 121.07 49.625C120.393 49.8021 119.69 49.8906 118.961 49.8906C117.711 49.8906 116.623 49.6719 115.695 49.2344C114.768 48.7865 114.044 48.0938 113.524 47.1562C113.013 46.2188 112.758 45 112.758 43.5V32.1094H117.524V42.3125C117.524 43.5625 117.748 44.5052 118.195 45.1406C118.643 45.776 119.357 46.0938 120.336 46.0938C121.305 46.0938 122.065 45.875 122.617 45.4375C123.169 44.9896 123.555 44.3385 123.774 43.4844C124.003 42.6198 124.117 41.5677 124.117 40.3281V32.1094H128.883ZM141.242 46.0938C141.763 46.0938 142.268 46.0417 142.758 45.9375C143.258 45.8333 143.753 45.7031 144.242 45.5469V49.0938C143.732 49.3229 143.096 49.5104 142.336 49.6562C141.586 49.8125 140.763 49.8906 139.867 49.8906C138.826 49.8906 137.888 49.724 137.055 49.3906C136.232 49.0469 135.581 48.4583 135.102 47.625C134.633 46.7812 134.399 45.6094 134.399 44.1094V35.6875H132.117V33.6719L134.742 32.0781L136.117 28.3906H139.164V32.1094H144.055V35.6875H139.164V44.1094C139.164 44.776 139.352 45.276 139.727 45.6094C140.112 45.9323 140.617 46.0938 141.242 46.0938ZM157.539 31.7812C157.779 31.7812 158.055 31.7969 158.367 31.8281C158.69 31.849 158.951 31.8802 159.149 31.9219L158.789 36.3906C158.633 36.3385 158.409 36.3021 158.117 36.2812C157.836 36.25 157.591 36.2344 157.383 36.2344C156.768 36.2344 156.169 36.3125 155.586 36.4688C155.013 36.625 154.498 36.8802 154.039 37.2344C153.581 37.5781 153.216 38.0365 152.945 38.6094C152.685 39.1719 152.555 39.8646 152.555 40.6875V49.5781H147.789V32.1094H151.399L152.102 35.0469H152.336C152.68 34.4531 153.107 33.9115 153.617 33.4219C154.138 32.9219 154.727 32.526 155.383 32.2344C156.05 31.9323 156.768 31.7812 157.539 31.7812ZM167.086 32.1094V49.5781H162.32V32.1094H167.086ZM164.711 25.2656C165.419 25.2656 166.029 25.4323 166.539 25.7656C167.05 26.0885 167.305 26.6979 167.305 27.5938C167.305 28.4792 167.05 29.0938 166.539 29.4375C166.029 29.7708 165.419 29.9375 164.711 29.9375C163.992 29.9375 163.378 29.7708 162.867 29.4375C162.367 29.0938 162.117 28.4792 162.117 27.5938C162.117 26.6979 162.367 26.0885 162.867 25.7656C163.378 25.4323 163.992 25.2656 164.711 25.2656ZM179.461 46.0938C179.982 46.0938 180.487 46.0417 180.977 45.9375C181.477 45.8333 181.971 45.7031 182.461 45.5469V49.0938C181.951 49.3229 181.315 49.5104 180.555 49.6562C179.805 49.8125 178.982 49.8906 178.086 49.8906C177.044 49.8906 176.107 49.724 175.274 49.3906C174.451 49.0469 173.8 48.4583 173.32 47.625C172.852 46.7812 172.617 45.6094 172.617 44.1094V35.6875H170.336V33.6719L172.961 32.0781L174.336 28.3906H177.383V32.1094H182.274V35.6875H177.383V44.1094C177.383 44.776 177.57 45.276 177.945 45.6094C178.331 45.9323 178.836 46.0938 179.461 46.0938ZM190.774 32.1094V49.5781H186.008V32.1094H190.774ZM188.399 25.2656C189.107 25.2656 189.716 25.4323 190.227 25.7656C190.737 26.0885 190.992 26.6979 190.992 27.5938C190.992 28.4792 190.737 29.0938 190.227 29.4375C189.716 29.7708 189.107 29.9375 188.399 29.9375C187.68 29.9375 187.065 29.7708 186.555 29.4375C186.055 29.0938 185.805 28.4792 185.805 27.5938C185.805 26.6979 186.055 26.0885 186.555 25.7656C187.065 25.4323 187.68 25.2656 188.399 25.2656ZM211.664 40.8125C211.664 42.2708 211.466 43.5625 211.07 44.6875C210.685 45.8125 210.117 46.7656 209.367 47.5469C208.628 48.3177 207.732 48.901 206.68 49.2969C205.638 49.6927 204.461 49.8906 203.149 49.8906C201.919 49.8906 200.789 49.6927 199.758 49.2969C198.737 48.901 197.846 48.3177 197.086 47.5469C196.336 46.7656 195.753 45.8125 195.336 44.6875C194.93 43.5625 194.727 42.2708 194.727 40.8125C194.727 38.875 195.07 37.2344 195.758 35.8906C196.445 34.5469 197.425 33.526 198.695 32.8281C199.966 32.1302 201.482 31.7813 203.242 31.7813C204.878 31.7813 206.326 32.1302 207.586 32.8281C208.857 33.526 209.852 34.5469 210.57 35.8906C211.3 37.2344 211.664 38.875 211.664 40.8125ZM199.586 40.8125C199.586 41.9583 199.711 42.9219 199.961 43.7031C200.211 44.4844 200.602 45.0729 201.133 45.4688C201.664 45.8646 202.357 46.0625 203.211 46.0625C204.055 46.0625 204.737 45.8646 205.258 45.4688C205.789 45.0729 206.175 44.4844 206.414 43.7031C206.664 42.9219 206.789 41.9583 206.789 40.8125C206.789 39.6562 206.664 38.6979 206.414 37.9375C206.175 37.1667 205.789 36.5885 205.258 36.2031C204.727 35.8177 204.034 35.625 203.18 35.625C201.919 35.625 201.003 36.0573 200.43 36.9219C199.867 37.7865 199.586 39.0833 199.586 40.8125ZM225.524 31.7813C227.388 31.7813 228.888 32.2917 230.024 33.3125C231.159 34.3229 231.727 35.9479 231.727 38.1875V49.5781H226.961V39.375C226.961 38.125 226.732 37.1823 226.274 36.5469C225.826 35.9115 225.117 35.5938 224.149 35.5938C222.69 35.5938 221.695 36.0885 221.164 37.0781C220.633 38.0677 220.367 39.4948 220.367 41.3594V49.5781H215.602V32.1094H219.242L219.883 34.3438H220.149C220.524 33.7396 220.987 33.25 221.539 32.875C222.102 32.5 222.721 32.224 223.399 32.0469C224.086 31.8698 224.794 31.7813 225.524 31.7813Z" fill="#F7F6F6"/>
</g>
<defs>
<filter id="filter0_d_226_207" x="0.867737" y="0.578125" width="290.905" height="82" filterUnits="userSpaceOnUse" color-interpolation-filters="sRGB">
<feFlood flood-opacity="0" result="BackgroundImageFix"/>
<feColorMatrix in="SourceAlpha" type="matrix" values="0 0 0 0 0 0 0 0 0 0 0 0 0 0 0 0 0 0 127 0" result="hardAlpha"/>
<feOffset dy="4"/>
<feGaussianBlur stdDeviation="2"/>
<feComposite in2="hardAlpha" operator="out"/>
<feColorMatrix type="matrix" values="0 0 0 0 0 0 0 0 0 0 0 0 0 0 0 0 0 0 0.25 0"/>
<feBlend mode="normal" in2="BackgroundImageFix" result="effect1_dropShadow_226_207"/>
<feBlend mode="normal" in="SourceGraphic" in2="effect1_dropShadow_226_207" result="shape"/>
</filter>
</defs>
</svg>
