<svg width="313" height="83" viewBox="0 0 313 83" fill="none" xmlns="http://www.w3.org/2000/svg">
<g filter="url(#filter0_d_226_204)">
<rect x="4.64331" y="0.506348" width="303.664" height="74" rx="10" fill="#CF0201" shape-rendering="crispEdges"/>
<g clip-path="url(#clip0_226_204)">
<path d="M32.4757 52.5068C32.4757 52.5068 29.9757 52.5068 29.9757 50.0068C29.9757 47.5068 32.4757 40.0068 42.4757 40.0068C52.4757 40.0068 54.9757 47.5068 54.9757 50.0068C54.9757 52.5068 52.4757 52.5068 52.4757 52.5068H32.4757ZM42.4757 37.5068C44.4648 37.5068 46.3725 36.7167 47.779 35.3101C49.1855 33.9036 49.9757 31.996 49.9757 30.0068C49.9757 28.0177 49.1855 26.1101 47.779 24.7035C46.3725 23.297 44.4648 22.5068 42.4757 22.5068C40.4866 22.5068 38.5789 23.297 37.1724 24.7035C35.7659 26.1101 34.9757 28.0177 34.9757 30.0068C34.9757 31.996 35.7659 33.9036 37.1724 35.3101C38.5789 36.7167 40.4866 37.5068 42.4757 37.5068ZM28.0157 52.5068C27.6453 51.7263 27.4604 50.8707 27.4757 50.0068C27.4757 46.6193 29.1757 43.1318 32.3157 40.7068C30.7487 40.2229 29.1156 39.9867 27.4757 40.0068C17.4757 40.0068 14.9757 47.5068 14.9757 50.0068C14.9757 52.5068 17.4757 52.5068 17.4757 52.5068H28.0157ZM26.2257 37.5068C27.8833 37.5068 29.473 36.8484 30.6451 35.6763C31.8172 34.5042 32.4757 32.9144 32.4757 31.2568C32.4757 29.5992 31.8172 28.0095 30.6451 26.8374C29.473 25.6653 27.8833 25.0068 26.2257 25.0068C24.5681 25.0068 22.9784 25.6653 21.8063 26.8374C20.6342 28.0095 19.9757 29.5992 19.9757 31.2568C19.9757 32.9144 20.6342 34.5042 21.8063 35.6763C22.9784 36.8484 24.5681 37.5068 26.2257 37.5068Z" fill="#F7F6F6"/>
</g>
<path d="M83.8696 48.5063H79.645V39.8794H71.729V48.5063H67.4907V28.5181H71.729V36.3521H79.645V28.5181H83.8696V48.5063ZM94.7524 28.5181C96.5662 28.5181 98.061 28.7368 99.2368 29.1743C100.422 29.6118 101.301 30.2726 101.875 31.1567C102.45 32.0409 102.737 33.1574 102.737 34.5063C102.737 35.4178 102.564 36.2153 102.217 36.8989C101.871 37.5825 101.415 38.1613 100.85 38.6353C100.285 39.1092 99.6743 39.4966 99.0181 39.7974L104.897 48.5063H100.194L95.4224 40.8364H93.1665V48.5063H88.9282V28.5181H94.7524ZM94.4517 31.9907H93.1665V37.3911H94.5337C95.9373 37.3911 96.9399 37.1587 97.5415 36.6938C98.1522 36.2199 98.4575 35.5272 98.4575 34.6157C98.4575 33.6678 98.1294 32.9933 97.4731 32.5923C96.826 32.1912 95.8188 31.9907 94.4517 31.9907ZM123.149 48.5063L118.336 32.8247H118.213C118.232 33.1984 118.259 33.7635 118.295 34.52C118.341 35.2674 118.382 36.0649 118.418 36.9126C118.455 37.7603 118.473 38.5259 118.473 39.2095V48.5063H114.686V28.5181H120.456L125.186 43.8032H125.268L130.286 28.5181H136.055V48.5063H132.104V39.0454C132.104 38.4165 132.113 37.6919 132.131 36.8716C132.159 36.0513 132.191 35.272 132.227 34.5337C132.264 33.7863 132.291 33.2257 132.309 32.8521H132.186L127.032 48.5063H123.149ZM147.034 32.9067C149.084 32.9067 150.657 33.3534 151.75 34.2466C152.844 35.1398 153.391 36.4979 153.391 38.3208V48.5063H150.479L149.672 46.4282H149.563C149.125 46.9751 148.679 47.4217 148.223 47.7681C147.767 48.1144 147.243 48.3696 146.651 48.5337C146.058 48.6978 145.338 48.7798 144.491 48.7798C143.588 48.7798 142.777 48.6066 142.057 48.2603C141.346 47.9139 140.786 47.3853 140.375 46.6743C139.965 45.9543 139.76 45.0428 139.76 43.9399C139.76 42.3175 140.33 41.1235 141.469 40.3579C142.609 39.5832 144.318 39.1548 146.596 39.0728L149.249 38.9907V38.3208C149.249 37.5187 149.039 36.9308 148.62 36.5571C148.2 36.1834 147.617 35.9966 146.87 35.9966C146.131 35.9966 145.407 36.1014 144.696 36.311C143.985 36.5207 143.274 36.785 142.563 37.104L141.182 34.2876C141.993 33.8592 142.9 33.522 143.903 33.2759C144.915 33.0298 145.958 32.9067 147.034 32.9067ZM149.249 41.4243L147.635 41.479C146.286 41.5155 145.347 41.757 144.819 42.2036C144.299 42.6502 144.04 43.2381 144.04 43.9673C144.04 44.6053 144.226 45.061 144.6 45.3345C144.974 45.5988 145.461 45.731 146.063 45.731C146.956 45.731 147.708 45.4666 148.319 44.938C148.939 44.4093 149.249 43.6574 149.249 42.6821V41.4243ZM166.379 32.9341C168.011 32.9341 169.323 33.3807 170.317 34.2739C171.31 35.158 171.807 36.5799 171.807 38.5396V48.5063H167.637V39.5786C167.637 38.4849 167.437 37.66 167.036 37.104C166.644 36.548 166.024 36.27 165.176 36.27C163.9 36.27 163.03 36.703 162.565 37.5688C162.1 38.4347 161.868 39.6834 161.868 41.3149V48.5063H157.698V33.2212H160.883L161.444 35.1763H161.676C162.004 34.6476 162.41 34.2192 162.893 33.8911C163.385 33.563 163.928 33.3215 164.52 33.1665C165.122 33.0116 165.741 32.9341 166.379 32.9341ZM182.362 32.9067C184.413 32.9067 185.985 33.3534 187.079 34.2466C188.172 35.1398 188.719 36.4979 188.719 38.3208V48.5063H185.807L185 46.4282H184.891C184.454 46.9751 184.007 47.4217 183.551 47.7681C183.096 48.1144 182.571 48.3696 181.979 48.5337C181.387 48.6978 180.667 48.7798 179.819 48.7798C178.917 48.7798 178.105 48.6066 177.385 48.2603C176.674 47.9139 176.114 47.3853 175.704 46.6743C175.293 45.9543 175.088 45.0428 175.088 43.9399C175.088 42.3175 175.658 41.1235 176.797 40.3579C177.937 39.5832 179.646 39.1548 181.924 39.0728L184.577 38.9907V38.3208C184.577 37.5187 184.367 36.9308 183.948 36.5571C183.528 36.1834 182.945 35.9966 182.198 35.9966C181.459 35.9966 180.735 36.1014 180.024 36.311C179.313 36.5207 178.602 36.785 177.891 37.104L176.51 34.2876C177.321 33.8592 178.228 33.522 179.231 33.2759C180.243 33.0298 181.286 32.9067 182.362 32.9067ZM184.577 41.4243L182.963 41.479C181.614 41.5155 180.676 41.757 180.147 42.2036C179.627 42.6502 179.368 43.2381 179.368 43.9673C179.368 44.6053 179.555 45.061 179.928 45.3345C180.302 45.5988 180.79 45.731 181.391 45.731C182.284 45.731 183.036 45.4666 183.647 44.938C184.267 44.4093 184.577 43.6574 184.577 42.6821V41.4243ZM197.497 55.2329C195.364 55.2329 193.732 54.8592 192.602 54.1118C191.481 53.3735 190.92 52.3345 190.92 50.9946C190.92 50.0741 191.208 49.3039 191.782 48.6841C192.356 48.0643 193.199 47.6222 194.311 47.3579C193.883 47.1756 193.509 46.8794 193.19 46.4692C192.871 46.05 192.711 45.6079 192.711 45.1431C192.711 44.5597 192.88 44.0767 193.217 43.6938C193.555 43.3019 194.042 42.9191 194.68 42.5454C193.878 42.1991 193.24 41.6431 192.766 40.8774C192.301 40.1118 192.069 39.2095 192.069 38.1704C192.069 37.0584 192.31 36.1151 192.793 35.3403C193.286 34.5565 193.997 33.9595 194.926 33.5493C195.865 33.1392 197.004 32.9341 198.344 32.9341C198.627 32.9341 198.955 32.9523 199.329 32.9888C199.702 33.0252 200.044 33.0662 200.354 33.1118C200.673 33.1574 200.887 33.1938 200.997 33.2212H206.329V35.3403L203.936 35.9556C204.155 36.2928 204.319 36.6528 204.428 37.0356C204.538 37.4185 204.592 37.8241 204.592 38.2524C204.592 39.8931 204.018 41.1737 202.87 42.0942C201.73 43.0057 200.144 43.4614 198.112 43.4614C197.629 43.4341 197.173 43.3976 196.745 43.3521C196.535 43.5161 196.375 43.6893 196.266 43.8716C196.157 44.0539 196.102 44.2453 196.102 44.4458C196.102 44.6463 196.184 44.8149 196.348 44.9517C196.521 45.0793 196.777 45.1795 197.114 45.2524C197.46 45.3162 197.889 45.3481 198.399 45.3481H200.997C202.674 45.3481 203.95 45.7082 204.825 46.4282C205.709 47.1483 206.151 48.2056 206.151 49.6001C206.151 51.3866 205.403 52.772 203.909 53.7563C202.423 54.7407 200.286 55.2329 197.497 55.2329ZM197.674 52.5122C198.668 52.5122 199.52 52.4165 200.231 52.2251C200.951 52.0428 201.502 51.7785 201.885 51.4321C202.268 51.0949 202.459 50.6893 202.459 50.2153C202.459 49.8325 202.346 49.5272 202.118 49.2993C201.899 49.0806 201.562 48.9256 201.106 48.8345C200.659 48.7433 200.085 48.6978 199.383 48.6978H197.223C196.713 48.6978 196.252 48.7798 195.842 48.9438C195.441 49.1079 195.122 49.3358 194.885 49.6274C194.648 49.9282 194.53 50.2746 194.53 50.6665C194.53 51.2407 194.803 51.6919 195.35 52.02C195.906 52.3481 196.681 52.5122 197.674 52.5122ZM198.344 40.9185C199.128 40.9185 199.702 40.6769 200.067 40.1938C200.431 39.7108 200.614 39.0545 200.614 38.2251C200.614 37.3045 200.422 36.6164 200.04 36.1606C199.666 35.6958 199.101 35.4634 198.344 35.4634C197.579 35.4634 197.004 35.6958 196.622 36.1606C196.239 36.6164 196.047 37.3045 196.047 38.2251C196.047 39.0545 196.234 39.7108 196.608 40.1938C196.991 40.6769 197.569 40.9185 198.344 40.9185ZM215.161 32.9341C216.573 32.9341 217.79 33.2075 218.811 33.7544C219.832 34.2922 220.62 35.076 221.176 36.106C221.732 37.1359 222.01 38.3937 222.01 39.8794V41.9028H212.153C212.198 43.0786 212.549 44.0037 213.206 44.6782C213.871 45.3436 214.792 45.6763 215.967 45.6763C216.943 45.6763 217.836 45.576 218.647 45.3755C219.458 45.175 220.292 44.8742 221.149 44.4731V47.6997C220.392 48.0734 219.599 48.3468 218.77 48.52C217.95 48.6932 216.952 48.7798 215.776 48.7798C214.245 48.7798 212.887 48.4972 211.702 47.9321C210.526 47.367 209.601 46.5057 208.926 45.3481C208.261 44.1906 207.928 42.7323 207.928 40.9731C207.928 39.1867 208.229 37.701 208.831 36.5161C209.441 35.3221 210.289 34.4289 211.374 33.8364C212.458 33.2349 213.721 32.9341 215.161 32.9341ZM215.188 35.9009C214.377 35.9009 213.702 36.1606 213.165 36.6802C212.636 37.1997 212.331 38.0155 212.249 39.1274H218.1C218.091 38.5076 217.977 37.9562 217.758 37.4731C217.549 36.9901 217.23 36.6073 216.801 36.3247C216.382 36.0422 215.844 35.9009 215.188 35.9009ZM243.352 32.9341C245.084 32.9341 246.392 33.3807 247.276 34.2739C248.169 35.158 248.616 36.5799 248.616 38.5396V48.5063H244.432V39.5786C244.432 38.4849 244.245 37.66 243.872 37.104C243.498 36.548 242.919 36.27 242.135 36.27C241.032 36.27 240.249 36.6665 239.784 37.4595C239.319 38.2433 239.086 39.369 239.086 40.8364V48.5063H234.917V39.5786C234.917 38.8494 234.834 38.2388 234.67 37.7466C234.506 37.2544 234.256 36.8853 233.918 36.6392C233.581 36.3931 233.148 36.27 232.62 36.27C231.845 36.27 231.234 36.466 230.788 36.8579C230.35 37.2407 230.036 37.8104 229.844 38.5669C229.662 39.3143 229.571 40.2303 229.571 41.3149V48.5063H225.401V33.2212H228.586L229.147 35.1763H229.379C229.689 34.6476 230.077 34.2192 230.542 33.8911C231.015 33.563 231.535 33.3215 232.1 33.1665C232.665 33.0116 233.239 32.9341 233.823 32.9341C234.944 32.9341 235.892 33.1164 236.667 33.481C237.45 33.8455 238.052 34.4106 238.471 35.1763H238.84C239.296 34.3924 239.939 33.8228 240.768 33.4673C241.607 33.1118 242.468 32.9341 243.352 32.9341ZM259.211 32.9341C260.624 32.9341 261.841 33.2075 262.862 33.7544C263.883 34.2922 264.671 35.076 265.227 36.106C265.783 37.1359 266.061 38.3937 266.061 39.8794V41.9028H256.204C256.249 43.0786 256.6 44.0037 257.256 44.6782C257.922 45.3436 258.842 45.6763 260.018 45.6763C260.993 45.6763 261.887 45.576 262.698 45.3755C263.509 45.175 264.343 44.8742 265.2 44.4731V47.6997C264.443 48.0734 263.65 48.3468 262.821 48.52C262 48.6932 261.002 48.7798 259.827 48.7798C258.295 48.7798 256.937 48.4972 255.752 47.9321C254.577 47.367 253.652 46.5057 252.977 45.3481C252.312 44.1906 251.979 42.7323 251.979 40.9731C251.979 39.1867 252.28 37.701 252.881 36.5161C253.492 35.3221 254.34 34.4289 255.424 33.8364C256.509 33.2349 257.771 32.9341 259.211 32.9341ZM259.239 35.9009C258.428 35.9009 257.753 36.1606 257.215 36.6802C256.687 37.1997 256.381 38.0155 256.299 39.1274H262.151C262.142 38.5076 262.028 37.9562 261.809 37.4731C261.599 36.9901 261.28 36.6073 260.852 36.3247C260.433 36.0422 259.895 35.9009 259.239 35.9009ZM278.133 32.9341C279.765 32.9341 281.077 33.3807 282.071 34.2739C283.064 35.158 283.561 36.5799 283.561 38.5396V48.5063H279.391V39.5786C279.391 38.4849 279.191 37.66 278.79 37.104C278.398 36.548 277.778 36.27 276.93 36.27C275.654 36.27 274.784 36.703 274.319 37.5688C273.854 38.4347 273.622 39.6834 273.622 41.3149V48.5063H269.452V33.2212H272.637L273.198 35.1763H273.43C273.758 34.6476 274.164 34.2192 274.647 33.8911C275.139 33.563 275.681 33.3215 276.274 33.1665C276.875 33.0116 277.495 32.9341 278.133 32.9341ZM294.293 45.4575C294.749 45.4575 295.191 45.4119 295.62 45.3208C296.057 45.2297 296.49 45.1157 296.918 44.979V48.0825C296.472 48.283 295.916 48.4471 295.25 48.5747C294.594 48.7114 293.874 48.7798 293.09 48.7798C292.179 48.7798 291.359 48.634 290.629 48.3423C289.909 48.0415 289.34 47.5265 288.92 46.7974C288.51 46.0591 288.305 45.0337 288.305 43.7212V36.3521H286.309V34.5884L288.606 33.1938L289.809 29.9673H292.475V33.2212H296.754V36.3521H292.475V43.7212C292.475 44.3045 292.639 44.742 292.967 45.0337C293.305 45.3162 293.747 45.4575 294.293 45.4575Z" fill="#F7F6F6"/>
</g>
<defs>
<filter id="filter0_d_226_204" x="0.643311" y="0.506348" width="311.664" height="82" filterUnits="userSpaceOnUse" color-interpolation-filters="sRGB">
<feFlood flood-opacity="0" result="BackgroundImageFix"/>
<feColorMatrix in="SourceAlpha" type="matrix" values="0 0 0 0 0 0 0 0 0 0 0 0 0 0 0 0 0 0 127 0" result="hardAlpha"/>
<feOffset dy="4"/>
<feGaussianBlur stdDeviation="2"/>
<feComposite in2="hardAlpha" operator="out"/>
<feColorMatrix type="matrix" values="0 0 0 0 0 0 0 0 0 0 0 0 0 0 0 0 0 0 0.25 0"/>
<feBlend mode="normal" in2="BackgroundImageFix" result="effect1_dropShadow_226_204"/>
<feBlend mode="normal" in="SourceGraphic" in2="effect1_dropShadow_226_204" result="shape"/>
</filter>
<clipPath id="clip0_226_204">
<rect width="40" height="40" fill="white" transform="translate(14.9751 17.5063)"/>
</clipPath>
</defs>
</svg>
