<svg width="336" height="83" viewBox="0 0 336 83" fill="none" xmlns="http://www.w3.org/2000/svg">
<g filter="url(#filter0_d_226_205)">
<rect x="4" y="0.351562" width="327.158" height="74" rx="10" fill="#CF0201" shape-rendering="crispEdges"/>
<path d="M52.579 32.3516C49.869 32.3516 47.579 34.6416 47.579 37.3516C47.579 40.0616 49.869 42.3516 52.579 42.3516C55.289 42.3516 57.579 40.0616 57.579 37.3516C57.579 34.6416 55.289 32.3516 52.579 32.3516Z" fill="#F7F6F6"/>
<path d="M65.9149 25.6797H61.6049L57.0933 21.168C56.9387 21.013 56.7551 20.89 56.5529 20.8062C56.3506 20.7224 56.1338 20.6794 55.9149 20.6797H49.2483C49.0293 20.6794 48.8125 20.7224 48.6103 20.8062C48.4081 20.89 48.2244 21.013 48.0699 21.168L43.5582 25.6797H39.2483C37.4099 25.6797 35.9149 27.1747 35.9149 29.013V47.3464C35.9149 49.1847 37.4099 50.6797 39.2483 50.6797H65.9149C67.7533 50.6797 69.2482 49.1847 69.2482 47.3464V29.013C69.2482 27.1747 67.7533 25.6797 65.9149 25.6797ZM52.5816 45.6797C48.0649 45.6797 44.2483 41.863 44.2483 37.3464C44.2483 32.8297 48.0649 29.013 52.5816 29.013C57.0982 29.013 60.9149 32.8297 60.9149 37.3464C60.9149 41.863 57.0982 45.6797 52.5816 45.6797Z" fill="#F7F6F6"/>
<path d="M92.7509 26.5078C95.6988 26.5078 97.8498 27.1432 99.204 28.4141C100.558 29.6745 101.235 31.4141 101.235 33.6328C101.235 34.6328 101.084 35.5911 100.782 36.5078C100.48 37.4141 99.9852 38.2214 99.2977 38.9297C98.6206 39.638 97.7144 40.2005 96.579 40.6172C95.4436 41.0234 94.0425 41.2266 92.3759 41.2266H90.2977V49.3516H85.454V26.5078H92.7509ZM92.5009 30.4766H90.2977V37.2578H91.8915C92.7977 37.2578 93.5842 37.138 94.2509 36.8984C94.9175 36.6589 95.4331 36.2839 95.7977 35.7734C96.1623 35.263 96.3446 34.6068 96.3446 33.8047C96.3446 32.6797 96.0321 31.8464 95.4071 31.3047C94.7821 30.7526 93.8134 30.4766 92.5009 30.4766ZM109.938 25.0391V29.9922C109.938 30.8568 109.907 31.6797 109.845 32.4609C109.793 33.2422 109.751 33.7943 109.72 34.1172H109.97C110.345 33.513 110.787 33.0234 111.298 32.6484C111.819 32.2734 112.391 31.9974 113.016 31.8203C113.641 31.6432 114.313 31.5547 115.032 31.5547C116.293 31.5547 117.391 31.7786 118.329 32.2266C119.266 32.6641 119.996 33.3568 120.516 34.3047C121.037 35.2422 121.298 36.4609 121.298 37.9609V49.3516H116.532V39.1484C116.532 37.8984 116.303 36.9557 115.845 36.3203C115.386 35.6849 114.678 35.3672 113.72 35.3672C112.761 35.3672 112.006 35.5911 111.454 36.0391C110.902 36.4766 110.511 37.1276 110.282 37.9922C110.053 38.8464 109.938 39.8932 109.938 41.1328V49.3516H105.173V25.0391H109.938ZM142.079 40.5859C142.079 42.0443 141.881 43.3359 141.485 44.4609C141.1 45.5859 140.532 46.5391 139.782 47.3203C139.043 48.0911 138.147 48.6745 137.095 49.0703C136.053 49.4661 134.876 49.6641 133.563 49.6641C132.334 49.6641 131.204 49.4661 130.173 49.0703C129.152 48.6745 128.261 48.0911 127.501 47.3203C126.751 46.5391 126.168 45.5859 125.751 44.4609C125.345 43.3359 125.141 42.0443 125.141 40.5859C125.141 38.6484 125.485 37.0078 126.173 35.6641C126.86 34.3203 127.839 33.2995 129.11 32.6016C130.381 31.9036 131.897 31.5547 133.657 31.5547C135.293 31.5547 136.74 31.9036 138.001 32.6016C139.272 33.2995 140.266 34.3203 140.985 35.6641C141.714 37.0078 142.079 38.6484 142.079 40.5859ZM130.001 40.5859C130.001 41.7318 130.126 42.6953 130.376 43.4766C130.626 44.2578 131.016 44.8464 131.548 45.2422C132.079 45.638 132.772 45.8359 133.626 45.8359C134.47 45.8359 135.152 45.638 135.673 45.2422C136.204 44.8464 136.589 44.2578 136.829 43.4766C137.079 42.6953 137.204 41.7318 137.204 40.5859C137.204 39.4297 137.079 38.4714 136.829 37.7109C136.589 36.9401 136.204 36.362 135.673 35.9766C135.141 35.5911 134.449 35.3984 133.595 35.3984C132.334 35.3984 131.418 35.8307 130.845 36.6953C130.282 37.5599 130.001 38.8568 130.001 40.5859ZM153.376 45.8672C153.897 45.8672 154.402 45.8151 154.891 45.7109C155.391 45.6068 155.886 45.4766 156.376 45.3203V48.8672C155.865 49.0964 155.23 49.2839 154.47 49.4297C153.72 49.5859 152.897 49.6641 152.001 49.6641C150.959 49.6641 150.022 49.4974 149.188 49.1641C148.365 48.8203 147.714 48.2318 147.235 47.3984C146.766 46.5547 146.532 45.3828 146.532 43.8828V35.4609H144.251V33.4453L146.876 31.8516L148.251 28.1641H151.298V31.8828H156.188V35.4609H151.298V43.8828C151.298 44.5495 151.485 45.0495 151.86 45.3828C152.246 45.7057 152.751 45.8672 153.376 45.8672ZM175.798 40.5859C175.798 42.0443 175.6 43.3359 175.204 44.4609C174.819 45.5859 174.251 46.5391 173.501 47.3203C172.761 48.0911 171.865 48.6745 170.813 49.0703C169.772 49.4661 168.595 49.6641 167.282 49.6641C166.053 49.6641 164.923 49.4661 163.891 49.0703C162.871 48.6745 161.98 48.0911 161.22 47.3203C160.47 46.5391 159.886 45.5859 159.47 44.4609C159.063 43.3359 158.86 42.0443 158.86 40.5859C158.86 38.6484 159.204 37.0078 159.891 35.6641C160.579 34.3203 161.558 33.2995 162.829 32.6016C164.1 31.9036 165.615 31.5547 167.376 31.5547C169.011 31.5547 170.459 31.9036 171.72 32.6016C172.99 33.2995 173.985 34.3203 174.704 35.6641C175.433 37.0078 175.798 38.6484 175.798 40.5859ZM163.72 40.5859C163.72 41.7318 163.845 42.6953 164.095 43.4766C164.345 44.2578 164.735 44.8464 165.266 45.2422C165.798 45.638 166.49 45.8359 167.345 45.8359C168.188 45.8359 168.871 45.638 169.391 45.2422C169.923 44.8464 170.308 44.2578 170.548 43.4766C170.798 42.6953 170.923 41.7318 170.923 40.5859C170.923 39.4297 170.798 38.4714 170.548 37.7109C170.308 36.9401 169.923 36.362 169.391 35.9766C168.86 35.5911 168.168 35.3984 167.313 35.3984C166.053 35.3984 165.136 35.8307 164.563 36.6953C164.001 37.5599 163.72 38.8568 163.72 40.5859ZM184.845 57.0391C182.407 57.0391 180.543 56.612 179.251 55.7578C177.97 54.9141 177.329 53.7266 177.329 52.1953C177.329 51.1432 177.657 50.263 178.313 49.5547C178.97 48.8464 179.933 48.3411 181.204 48.0391C180.714 47.8307 180.287 47.4922 179.923 47.0234C179.558 46.5443 179.376 46.0391 179.376 45.5078C179.376 44.8411 179.569 44.2891 179.954 43.8516C180.339 43.4036 180.897 42.9661 181.626 42.5391C180.709 42.1432 179.98 41.5078 179.438 40.6328C178.907 39.7578 178.641 38.7266 178.641 37.5391C178.641 36.2682 178.918 35.1901 179.47 34.3047C180.032 33.4089 180.845 32.7266 181.907 32.2578C182.98 31.7891 184.282 31.5547 185.813 31.5547C186.136 31.5547 186.511 31.5755 186.938 31.6172C187.365 31.6589 187.756 31.7057 188.11 31.7578C188.475 31.8099 188.72 31.8516 188.845 31.8828H194.938V34.3047L192.204 35.0078C192.454 35.3932 192.641 35.8047 192.766 36.2422C192.891 36.6797 192.954 37.1432 192.954 37.6328C192.954 39.5078 192.298 40.9714 190.985 42.0234C189.683 43.0651 187.871 43.5859 185.548 43.5859C184.996 43.5547 184.475 43.513 183.985 43.4609C183.746 43.6484 183.563 43.8464 183.438 44.0547C183.313 44.263 183.251 44.4818 183.251 44.7109C183.251 44.9401 183.345 45.1328 183.532 45.2891C183.73 45.4349 184.022 45.5495 184.407 45.6328C184.803 45.7057 185.293 45.7422 185.876 45.7422H188.845C190.761 45.7422 192.22 46.1536 193.22 46.9766C194.23 47.7995 194.735 49.0078 194.735 50.6016C194.735 52.6432 193.881 54.2266 192.173 55.3516C190.475 56.4766 188.032 57.0391 184.845 57.0391ZM185.048 53.9297C186.183 53.9297 187.157 53.8203 187.97 53.6016C188.793 53.3932 189.423 53.0911 189.86 52.6953C190.298 52.3099 190.516 51.8464 190.516 51.3047C190.516 50.8672 190.386 50.5182 190.126 50.2578C189.876 50.0078 189.49 49.8307 188.97 49.7266C188.459 49.6224 187.803 49.5703 187.001 49.5703H184.532C183.949 49.5703 183.423 49.6641 182.954 49.8516C182.496 50.0391 182.131 50.2995 181.86 50.6328C181.589 50.9766 181.454 51.3724 181.454 51.8203C181.454 52.4766 181.766 52.9922 182.391 53.3672C183.027 53.7422 183.912 53.9297 185.048 53.9297ZM185.813 40.6797C186.709 40.6797 187.365 40.4036 187.782 39.8516C188.199 39.2995 188.407 38.5495 188.407 37.6016C188.407 36.5495 188.188 35.763 187.751 35.2422C187.324 34.7109 186.678 34.4453 185.813 34.4453C184.938 34.4453 184.282 34.7109 183.845 35.2422C183.407 35.763 183.188 36.5495 183.188 37.6016C183.188 38.5495 183.402 39.2995 183.829 39.8516C184.266 40.4036 184.928 40.6797 185.813 40.6797ZM207.579 31.5547C207.819 31.5547 208.095 31.5703 208.407 31.6016C208.73 31.6224 208.99 31.6536 209.188 31.6953L208.829 36.1641C208.673 36.112 208.449 36.0755 208.157 36.0547C207.876 36.0234 207.631 36.0078 207.423 36.0078C206.808 36.0078 206.209 36.0859 205.626 36.2422C205.053 36.3984 204.537 36.6536 204.079 37.0078C203.621 37.3516 203.256 37.8099 202.985 38.3828C202.725 38.9453 202.595 39.638 202.595 40.4609V49.3516H197.829V31.8828H201.438L202.141 34.8203H202.376C202.72 34.2266 203.147 33.6849 203.657 33.1953C204.178 32.6953 204.766 32.2995 205.423 32.0078C206.089 31.7057 206.808 31.5547 207.579 31.5547ZM219.516 31.5234C221.86 31.5234 223.657 32.0339 224.907 33.0547C226.157 34.0755 226.782 35.6276 226.782 37.7109V49.3516H223.454L222.532 46.9766H222.407C221.907 47.6016 221.397 48.112 220.876 48.5078C220.355 48.9036 219.756 49.1953 219.079 49.3828C218.402 49.5703 217.579 49.6641 216.61 49.6641C215.579 49.6641 214.652 49.4661 213.829 49.0703C213.016 48.6745 212.376 48.0703 211.907 47.2578C211.438 46.4349 211.204 45.3932 211.204 44.1328C211.204 42.2786 211.855 40.9141 213.157 40.0391C214.459 39.1536 216.412 38.6641 219.016 38.5703L222.048 38.4766V37.7109C222.048 36.7943 221.808 36.1224 221.329 35.6953C220.85 35.2682 220.183 35.0547 219.329 35.0547C218.485 35.0547 217.657 35.1745 216.845 35.4141C216.032 35.6536 215.22 35.9557 214.407 36.3203L212.829 33.1016C213.756 32.612 214.793 32.2266 215.938 31.9453C217.095 31.6641 218.287 31.5234 219.516 31.5234ZM222.048 41.2578L220.204 41.3203C218.662 41.362 217.589 41.638 216.985 42.1484C216.391 42.6589 216.095 43.3307 216.095 44.1641C216.095 44.8932 216.308 45.4141 216.735 45.7266C217.162 46.0286 217.72 46.1797 218.407 46.1797C219.428 46.1797 220.287 45.8776 220.985 45.2734C221.694 44.6693 222.048 43.8099 222.048 42.6953V41.2578ZM241.423 31.5547C243.391 31.5547 244.98 32.3203 246.188 33.8516C247.407 35.3828 248.016 37.6276 248.016 40.5859C248.016 42.5651 247.73 44.2318 247.157 45.5859C246.584 46.9297 245.793 47.9453 244.782 48.6328C243.772 49.3203 242.61 49.6641 241.298 49.6641C240.454 49.6641 239.73 49.5599 239.126 49.3516C238.522 49.1328 238.006 48.8568 237.579 48.5234C237.152 48.1797 236.782 47.8151 236.47 47.4297H236.22C236.303 47.8464 236.365 48.2734 236.407 48.7109C236.449 49.1484 236.47 49.5755 236.47 49.9922V57.0391H231.704V31.8828H235.579L236.251 34.1484H236.47C236.782 33.6797 237.162 33.2474 237.61 32.8516C238.058 32.4557 238.595 32.1432 239.22 31.9141C239.855 31.6745 240.589 31.5547 241.423 31.5547ZM239.891 35.3672C239.058 35.3672 238.397 35.5391 237.907 35.8828C237.418 36.2266 237.058 36.7422 236.829 37.4297C236.61 38.1172 236.49 38.987 236.47 40.0391V40.5547C236.47 41.6797 236.574 42.6328 236.782 43.4141C237.001 44.1953 237.36 44.7891 237.86 45.1953C238.371 45.6016 239.069 45.8047 239.954 45.8047C240.683 45.8047 241.282 45.6016 241.751 45.1953C242.22 44.7891 242.569 44.1953 242.798 43.4141C243.037 42.6224 243.157 41.6589 243.157 40.5234C243.157 38.8151 242.891 37.5286 242.36 36.6641C241.829 35.7995 241.006 35.3672 239.891 35.3672ZM256.72 25.0391V29.9922C256.72 30.8568 256.688 31.6797 256.626 32.4609C256.574 33.2422 256.532 33.7943 256.501 34.1172H256.751C257.126 33.513 257.569 33.0234 258.079 32.6484C258.6 32.2734 259.173 31.9974 259.798 31.8203C260.423 31.6432 261.095 31.5547 261.813 31.5547C263.074 31.5547 264.173 31.7786 265.11 32.2266C266.048 32.6641 266.777 33.3568 267.298 34.3047C267.819 35.2422 268.079 36.4609 268.079 37.9609V49.3516H263.313V39.1484C263.313 37.8984 263.084 36.9557 262.626 36.3203C262.168 35.6849 261.459 35.3672 260.501 35.3672C259.543 35.3672 258.787 35.5911 258.235 36.0391C257.683 36.4766 257.293 37.1276 257.063 37.9922C256.834 38.8464 256.72 39.8932 256.72 41.1328V49.3516H251.954V25.0391H256.72ZM270.485 31.8828H275.704L279.001 41.7109C279.105 42.0234 279.194 42.3411 279.266 42.6641C279.339 42.987 279.402 43.3203 279.454 43.6641C279.506 44.0078 279.548 44.3672 279.579 44.7422H279.673C279.735 44.1797 279.819 43.6536 279.923 43.1641C280.037 42.6745 280.178 42.1901 280.345 41.7109L283.579 31.8828H288.688L281.298 51.5859C280.85 52.7943 280.266 53.7995 279.548 54.6016C278.829 55.4141 278.001 56.0234 277.063 56.4297C276.136 56.8359 275.115 57.0391 274.001 57.0391C273.459 57.0391 272.99 57.0078 272.595 56.9453C272.199 56.8932 271.86 56.8359 271.579 56.7734V52.9922C271.798 53.0443 272.074 53.0911 272.407 53.1328C272.74 53.1745 273.089 53.1953 273.454 53.1953C274.121 53.1953 274.694 53.0547 275.173 52.7734C275.652 52.4922 276.053 52.112 276.376 51.6328C276.699 51.1641 276.954 50.6484 277.141 50.0859L277.423 49.2266L270.485 31.8828Z" fill="#F7F6F6"/>
</g>
<defs>
<filter id="filter0_d_226_205" x="0" y="0.351562" width="335.158" height="82" filterUnits="userSpaceOnUse" color-interpolation-filters="sRGB">
<feFlood flood-opacity="0" result="BackgroundImageFix"/>
<feColorMatrix in="SourceAlpha" type="matrix" values="0 0 0 0 0 0 0 0 0 0 0 0 0 0 0 0 0 0 127 0" result="hardAlpha"/>
<feOffset dy="4"/>
<feGaussianBlur stdDeviation="2"/>
<feComposite in2="hardAlpha" operator="out"/>
<feColorMatrix type="matrix" values="0 0 0 0 0 0 0 0 0 0 0 0 0 0 0 0 0 0 0.25 0"/>
<feBlend mode="normal" in2="BackgroundImageFix" result="effect1_dropShadow_226_205"/>
<feBlend mode="normal" in="SourceGraphic" in2="effect1_dropShadow_226_205" result="shape"/>
</filter>
</defs>
</svg>
