<svg width="686" height="762" viewBox="0 0 686 762" fill="none" xmlns="http://www.w3.org/2000/svg">
<g filter="url(#filter0_d_226_114)">
<path d="M380.738 754C588.805 754 757.476 585.211 757.476 377C757.476 168.789 588.805 0 380.738 0C172.671 0 4 168.789 4 377C4 585.211 172.671 754 380.738 754Z" fill="#CF0201"/>
<path d="M483.392 63.292C312.651 4.49382 126.01 96.4956 67.2523 267.356C8.49497 438.217 100.433 624.987 271.175 683.785C441.917 742.583 628.558 650.581 687.315 479.721C746.072 308.86 654.826 121.398 483.392 63.292ZM271.866 681.018C102.507 622.912 11.2602 437.525 69.3262 268.048C127.392 98.5707 312.651 7.26071 482.01 65.3671C651.369 123.474 742.616 308.861 684.55 478.338C627.175 648.507 441.917 739.125 271.866 681.018Z" fill="#D9D9D9" stroke="#F7F6F6"/>
<path d="M585.714 436.838C585.023 436.838 584.332 436.838 584.332 437.53C545.621 550.284 422.576 611.157 309.9 572.42C197.225 533.682 136.394 410.552 175.104 297.798C175.104 297.106 175.104 296.414 174.413 296.414C173.722 296.414 173.031 296.414 173.031 297.106C133.629 411.244 195.151 535.757 309.209 575.187C423.268 614.616 547.695 553.051 587.097 438.913C586.406 437.53 586.406 436.838 585.714 436.838Z" fill="#D9D9D9" stroke="#F7F6F6"/>
<path d="M309.893 285.98C323.027 290.823 341 272.146 350.678 243.784C360.356 216.114 357.591 190.52 344.457 185.678C331.323 180.835 313.35 199.513 303.672 227.874C293.994 255.544 296.759 281.138 309.893 285.98ZM343.765 188.445C355.517 192.595 357.591 216.806 348.604 243.093C339.618 269.379 323.027 287.364 311.276 283.214C299.525 279.063 297.451 254.852 306.437 228.566C315.423 202.279 332.014 184.294 343.765 188.445Z" fill="#D9D9D9" stroke="#F7F6F6"/>
<path d="M484.054 345.527C497.188 350.369 515.16 331.692 524.838 303.331C534.516 275.661 531.751 250.067 518.617 245.224C505.483 240.382 487.51 259.059 477.832 287.421C468.155 315.782 470.92 340.685 484.054 345.527ZM517.234 247.991C528.986 252.142 531.059 276.353 522.073 302.639C513.087 328.925 496.496 346.911 484.745 342.76C472.993 338.61 470.92 314.399 479.906 288.113C488.892 261.826 505.483 243.841 517.234 247.991Z" fill="#D9D9D9" stroke="#F7F6F6"/>
</g>
<defs>
<filter id="filter0_d_226_114" x="0" y="0" width="761.476" height="762" filterUnits="userSpaceOnUse" color-interpolation-filters="sRGB">
<feFlood flood-opacity="0" result="BackgroundImageFix"/>
<feColorMatrix in="SourceAlpha" type="matrix" values="0 0 0 0 0 0 0 0 0 0 0 0 0 0 0 0 0 0 127 0" result="hardAlpha"/>
<feOffset dy="4"/>
<feGaussianBlur stdDeviation="2"/>
<feComposite in2="hardAlpha" operator="out"/>
<feColorMatrix type="matrix" values="0 0 0 0 0 0 0 0 0 0 0 0 0 0 0 0 0 0 0.25 0"/>
<feBlend mode="normal" in2="BackgroundImageFix" result="effect1_dropShadow_226_114"/>
<feBlend mode="normal" in="SourceGraphic" in2="effect1_dropShadow_226_114" result="shape"/>
</filter>
</defs>
</svg>
