<svg width="16" height="16" viewBox="0 0 16 16" fill="none" xmlns="http://www.w3.org/2000/svg">
<mask id="path-1-inside-1_2007_125" fill="white">
<path d="M15.8517 15.0712L15.0455 15.0725L15.0226 1.26413L0.886864 1.28766L0.885553 0.500216L15.8274 0.475342L15.8517 15.0712Z"/>
</mask>
<path d="M15.8517 15.0712L15.0455 15.0725L15.0226 1.26413L0.886864 1.28766L0.885553 0.500216L15.8274 0.475342L15.8517 15.0712Z" fill="#F7F6F6"/>
<path d="M15.8517 15.0712L15.8533 16.0712L16.8533 16.0695L16.8517 15.0695L15.8517 15.0712ZM15.0455 15.0725L14.0455 15.0742L14.0472 16.0742L15.0472 16.0725L15.0455 15.0725ZM15.0226 1.26413L16.0226 1.26246L16.0209 0.262463L15.0209 0.264127L15.0226 1.26413ZM0.886864 1.28766L-0.113135 1.28932L-0.11147 2.28932L0.888528 2.28766L0.886864 1.28766ZM0.885553 0.500216L0.883888 -0.499783L-0.116111 -0.498118L-0.114446 0.501881L0.885553 0.500216ZM15.8274 0.475342L16.8274 0.473677L16.8257 -0.526322L15.8257 -0.524657L15.8274 0.475342ZM15.8517 15.0712L15.85 14.0712L15.0439 14.0725L15.0455 15.0725L15.0472 16.0725L15.8533 16.0712L15.8517 15.0712ZM15.0455 15.0725L16.0455 15.0709L16.0226 1.26246L15.0226 1.26413L14.0226 1.26579L14.0455 15.0742L15.0455 15.0725ZM15.0226 1.26413L15.0209 0.264127L0.885199 0.28766L0.886864 1.28766L0.888528 2.28766L15.0242 2.26412L15.0226 1.26413ZM0.886864 1.28766L1.88686 1.28599L1.88555 0.498551L0.885553 0.500216L-0.114446 0.501881L-0.113135 1.28932L0.886864 1.28766ZM0.885553 0.500216L0.887217 1.50021L15.829 1.47534L15.8274 0.475342L15.8257 -0.524657L0.883888 -0.499783L0.885553 0.500216ZM15.8274 0.475342L14.8274 0.477007L14.8517 15.0729L15.8517 15.0712L16.8517 15.0695L16.8274 0.473677L15.8274 0.475342Z" fill="#181818" mask="url(#path-1-inside-1_2007_125)"/>
<mask id="path-3-inside-2_2007_125" fill="white">
<path d="M15.7186 1.14374L15.1476 0.587891L0.636235 14.8126L1.20724 15.3684L15.7186 1.14374Z"/>
</mask>
<path d="M15.7186 1.14374L15.1476 0.587891L0.636235 14.8126L1.20724 15.3684L15.7186 1.14374Z" fill="#F7F6F6"/>
<path d="M15.1476 0.587891L15.8617 -0.112127L15.1452 -0.809662L14.431 -0.109644L15.1476 0.587891ZM15.7186 1.14374L16.4351 1.84128L17.1493 1.14126L16.4327 0.443724L15.7186 1.14374ZM1.20724 15.3684L0.493114 16.0684L1.20967 16.766L1.92379 16.066L1.20724 15.3684ZM0.636235 14.8126L-0.0803158 14.115L-0.794441 14.8151L-0.0778904 15.5126L0.636235 14.8126ZM15.1476 0.587891L14.4335 1.28791L15.0045 1.84376L15.7186 1.14374L16.4327 0.443724L15.8617 -0.112127L15.1476 0.587891ZM15.7186 1.14374L15.002 0.446207L0.490689 14.6709L1.20724 15.3684L1.92379 16.066L16.4351 1.84128L15.7186 1.14374ZM1.20724 15.3684L1.92137 14.6684L1.35036 14.1126L0.636235 14.8126L-0.0778904 15.5126L0.493114 16.0684L1.20724 15.3684ZM0.636235 14.8126L1.35279 15.5101L15.8641 1.28543L15.1476 0.587891L14.431 -0.109644L-0.0803158 14.115L0.636235 14.8126Z" fill="#181818" mask="url(#path-3-inside-2_2007_125)"/>
</svg>
