<svg width="8" height="260" viewBox="0 0 8 260" fill="none" xmlns="http://www.w3.org/2000/svg">
<path d="M4.50002 1C4.50002 0.723858 4.27616 0.5 4.00002 0.5C3.72387 0.5 3.50002 0.723858 3.50002 1L4.50002 1ZM3.64645 259.354C3.84171 259.549 4.1583 259.549 4.35356 259.354L7.53554 256.172C7.7308 255.976 7.7308 255.66 7.53554 255.464C7.34028 255.269 7.02369 255.269 6.82843 255.464L4 258.293L1.17158 255.464C0.976315 255.269 0.659732 255.269 0.46447 255.464C0.269208 255.66 0.269208 255.976 0.46447 256.172L3.64645 259.354ZM4.00002 1L3.50002 1L3.5 259L4 259L4.5 259L4.50002 1L4.00002 1Z" fill="white"/>
</svg>
