<svg width="287" height="54" viewBox="0 0 287 54" fill="none" xmlns="http://www.w3.org/2000/svg">
<path d="M278.096 26.1904V26.36C280.895 26.9536 283.099 28.3951 284.71 30.5151C286.237 32.7198 287 35.5181 287 38.8252C287 43.3195 285.643 46.881 283.014 49.4249C280.386 51.9689 276.315 53.2408 271.058 53.2408H256.388V0.327118H270.888C275.722 0.327118 279.453 1.59907 281.912 3.97341C284.456 6.43254 285.643 9.82444 285.643 14.1491C285.643 17.4562 284.965 20.085 283.608 22.1201C282.336 24.3248 280.471 25.5968 278.096 26.1904ZM267.072 9.73963V22.6289H269.701C271.567 22.6289 273.008 22.2049 273.772 21.1025C274.535 20.0002 275.043 18.389 275.043 16.0995C275.043 13.8947 274.535 12.2836 273.772 11.266C273.008 10.2484 271.567 9.73963 269.701 9.73963H267.072ZM267.072 30.6847V44.3371H270.38C272.415 44.3371 273.856 43.7435 274.704 42.6411C275.467 41.5388 275.976 39.8428 275.976 37.4685C275.976 35.2637 275.467 33.483 274.619 32.3806C273.772 31.2782 272.33 30.5999 270.38 30.5999H267.072V30.6847Z" fill="white"/>
<path d="M234.933 43.997C238.071 43.997 239.597 41.5379 239.597 36.45V0.495804H250.875V35.7716C250.875 41.3683 249.433 45.7777 246.72 48.7457C244.006 51.7984 240.106 53.2399 234.933 53.2399C229.76 53.2399 225.775 51.7984 223.061 48.7457C220.348 45.7777 218.991 41.3683 218.991 35.7716V0.495804H230.269V36.45C230.269 41.4531 231.795 43.997 234.933 43.997Z" fill="white"/>
<path d="M191.772 53.2409H180.579V0.327133H191.772V21.7809H202.202V0.327133H213.48V53.2409H202.202V31.1087H191.772V53.2409Z" fill="white"/>
<path d="M54.6935 9.32774L51.3864 43.8404H59.0181L55.6262 16.1963L54.6935 9.32774ZM66.9043 52.8289H60.2053H50.0296H46.1289H39.9387L48.164 0H62.41L70.2114 52.8289H66.9043Z" fill="white"/>
<path d="M155.182 0H166.545V52.9137H155.182V0Z" fill="white"/>
<path d="M149.495 52.8336V0.0894623H137.454C126.091 0.0894623 120.325 8.90843 120.325 26.5463C120.325 44.0994 126.091 52.8336 137.454 52.8336H149.495ZM139.658 9.4172V43.5059H137.454C134.995 43.5059 133.383 43.0819 132.366 40.3683C131.348 37.6548 130.755 33.2453 130.755 26.9703C130.755 20.7801 131.348 16.2858 132.366 13.4875C133.383 10.774 135.164 9.33243 137.538 9.33243H139.658V9.4172Z" fill="white"/>
<path d="M89.9728 12.4652C89.9728 14.5004 90.736 16.7051 92.3471 19.3338C95.2303 17.3835 96.587 15.094 96.587 12.2957C96.587 11.0237 96.2478 10.0909 95.739 9.32774C95.1455 8.56456 94.2975 8.14055 93.2799 8.14055C92.1775 8.14055 91.4144 8.56454 90.8208 9.41252C90.2272 10.2605 89.9728 11.2781 89.9728 12.4652ZM92.0927 43.8404C93.6191 43.8404 95.0607 43.4164 96.4174 42.314L88.1073 30.2727C86.5809 31.8839 85.9025 34.0038 85.9025 36.8022C85.9025 38.9221 86.4961 40.6181 87.5985 41.89C88.7008 43.2468 90.2272 43.8404 92.0927 43.8404ZM103.456 52.8289L100.996 49.437C97.9438 51.7265 94.6367 52.9137 90.9904 52.9137C86.4113 52.9137 82.765 51.5569 80.0515 48.9282C77.338 46.2995 76.066 42.738 76.066 38.2437C76.066 32.2231 78.6947 27.3896 83.8674 23.8281C81.3234 19.8426 80.0515 16.1115 80.0515 12.55C80.0515 8.98854 81.2386 6.02062 83.613 3.64629C85.9873 1.27195 89.04 0 92.8559 0C96.587 0 99.6397 1.18716 102.014 3.3071C104.388 5.51184 105.66 8.47976 105.66 12.2109C105.66 17.8075 102.608 22.3018 96.4174 25.6937L101.844 33.8343C103.964 31.3751 104.304 30.1031 104.388 26.1177H112.19C112.275 33.8342 110.409 37.3957 107.356 42.1444L114.649 52.8289H103.456Z" fill="white"/>
<path d="M34.0887 52.9976H21.7082L13.4828 31.1198H11.3629V52.9976H0V0.253489H11.3629V21.4529H13.4828L21.1994 0.168686H33.4103L23.489 25.8624L34.0887 52.9976Z" fill="white"/>
</svg>
